Rokkitt-600.ufo
<glyph name="fj" format="1">
  <advance width="1260"/>
  <unicode hex="0000"/>
  <outline>
    <contour>
      <point x="688" y="-364" type="line"/>
      <point x="787" y="-364" type="line" smooth="yes"/>
      <point x="1137" y="-364"/>
      <point x="1144" y="-163"/>
      <point x="1144" y="63" type="curve" smooth="yes"/>
      <point x="1144" y="804" type="line"/>
      <point x="462" y="804" type="line"/>
      <point x="462" y="899" type="line" smooth="yes"/>
      <point x="462" y="1107"/>
      <point x="558" y="1175"/>
      <point x="692" y="1175" type="curve" smooth="yes"/>
      <point x="783" y="1175"/>
      <point x="851" y="1148"/>
      <point x="886" y="1121" type="curve"/>
      <point x="875" y="1103"/>
      <point x="869" y="1083"/>
      <point x="869" y="1062" type="curve" smooth="yes"/>
      <point x="869" y="1000"/>
      <point x="920" y="952"/>
      <point x="992" y="952" type="curve" smooth="yes"/>
      <point x="1069" y="952"/>
      <point x="1119" y="1005"/>
      <point x="1119" y="1069" type="curve" smooth="yes"/>
      <point x="1119" y="1208"/>
      <point x="913" y="1297"/>
      <point x="694" y="1297" type="curve" smooth="yes"/>
      <point x="467" y="1297"/>
      <point x="239" y="1199"/>
      <point x="239" y="892" type="curve" smooth="yes"/>
      <point x="239" y="804" type="line"/>
      <point x="97" y="804" type="line"/>
      <point x="97" y="650" type="line"/>
      <point x="239" y="650" type="line"/>
      <point x="239" y="154" type="line"/>
      <point x="100" y="154" type="line"/>
      <point x="100" y="0" type="line"/>
      <point x="637" y="0" type="line"/>
      <point x="637" y="154" type="line"/>
      <point x="462" y="154" type="line"/>
      <point x="462" y="650" type="line"/>
      <point x="918" y="650" type="line"/>
      <point x="918" y="-16" type="line" smooth="yes"/>
      <point x="918" y="-146"/>
      <point x="883" y="-190"/>
      <point x="778" y="-190" type="curve" smooth="yes"/>
      <point x="688" y="-190" type="line"/>
    </contour>
  </outline>
</glyph>
<glyph name="exclam" format="1">
  <advance width="526"/>
  <unicode hex="0021"/>
  <outline>
    <contour>
      <point x="215" y="405" type="line"/>
      <point x="323" y="405" type="line"/>
      <point x="376" y="901" type="line"/>
      <point x="376" y="1208" type="line"/>
      <point x="156" y="1208" type="line"/>
      <point x="156" y="901" type="line"/>
    </contour>
    <contour>
      <point x="134" y="0" type="line"/>
      <point x="396" y="0" type="line"/>
      <point x="396" y="248" type="line"/>
      <point x="134" y="248" type="line"/>
    </contour>
  </outline>
</glyph>
<glyph name="quotedbl" format="1">
  <advance width="848"/>
  <unicode hex="0022"/>
  <outline>
    <contour>
      <point x="191" y="726" type="line"/>
      <point x="320" y="726" type="line"/>
      <point x="366" y="1212" type="line"/>
      <point x="139" y="1212" type="line"/>
    </contour>
    <contour>
      <point x="531" y="726" type="line"/>
      <point x="659" y="726" type="line"/>
      <point x="706" y="1212" type="line"/>
      <point x="479" y="1212" type="line"/>
    </contour>
  </outline>
</glyph>
<glyph name="numbersign" format="1">
  <advance width="1248"/>
  <unicode hex="0023"/>
  <outline>
    <contour>
      <point x="197" y="-9" type="line"/>
      <point x="360" y="-9" type="line"/>
      <point x="420" y="326" type="line"/>
      <point x="718" y="326" type="line"/>
      <point x="660" y="-9" type="line"/>
      <point x="823" y="-9" type="line"/>
      <point x="883" y="326" type="line"/>
      <point x="1142" y="326" type="line"/>
      <point x="1149" y="468" type="line"/>
      <point x="912" y="468" type="line"/>
      <point x="961" y="750" type="line"/>
      <point x="1172" y="750" type="line"/>
      <point x="1179" y="893" type="line"/>
      <point x="989" y="893" type="line"/>
      <point x="1049" y="1222" type="line"/>
      <point x="883" y="1222" type="line"/>
      <point x="824" y="893" type="line"/>
      <point x="529" y="893" type="line"/>
      <point x="587" y="1222" type="line"/>
      <point x="422" y="1222" type="line"/>
      <point x="364" y="893" type="line"/>
      <point x="113" y="893" type="line"/>
      <point x="106" y="750" type="line"/>
      <point x="333" y="750" type="line"/>
      <point x="285" y="468" type="line"/>
      <point x="83" y="468" type="line"/>
      <point x="76" y="326" type="line"/>
      <point x="255" y="326" type="line"/>
    </contour>
    <contour>
      <point x="449" y="468" type="line"/>
      <point x="497" y="750" type="line"/>
      <point x="795" y="750" type="line"/>
      <point x="747" y="468" type="line"/>
    </contour>
  </outline>
</glyph>
<glyph name="percent" format="1">
  <advance width="1806"/>
  <unicode hex="0025"/>
  <outline>
    <contour>
      <point x="434" y="698" type="curve" smooth="yes"/>
      <point x="340" y="699"/>
      <point x="271" y="774"/>
      <point x="271" y="878" type="curve" smooth="yes"/>
      <point x="271" y="981"/>
      <point x="340" y="1054"/>
      <point x="434" y="1056" type="curve" smooth="yes"/>
      <point x="530" y="1054"/>
      <point x="599" y="981"/>
      <point x="599" y="878" type="curve" smooth="yes"/>
      <point x="599" y="774"/>
      <point x="530" y="699"/>
    </contour>
    <contour>
      <point x="434" y="575" type="curve" smooth="yes"/>
      <point x="616" y="575"/>
      <point x="750" y="703"/>
      <point x="750" y="878" type="curve" smooth="yes"/>
      <point x="750" y="1050"/>
      <point x="616" y="1176"/>
      <point x="434" y="1176" type="curve" smooth="yes"/>
      <point x="252" y="1176"/>
      <point x="120" y="1050"/>
      <point x="120" y="878" type="curve" smooth="yes"/>
      <point x="120" y="703"/>
      <point x="252" y="575"/>
    </contour>
    <contour>
      <point x="455" y="-77" type="line"/>
      <point x="1472" y="1166" type="line"/>
      <point x="1365" y="1253" type="line"/>
      <point x="343" y="17" type="line"/>
    </contour>
    <contour>
      <point x="1381" y="101" type="curve" smooth="yes"/>
      <point x="1287" y="102"/>
      <point x="1218" y="177"/>
      <point x="1218" y="281" type="curve" smooth="yes"/>
      <point x="1218" y="383"/>
      <point x="1287" y="457"/>
      <point x="1381" y="458" type="curve" smooth="yes"/>
      <point x="1477" y="457"/>
      <point x="1546" y="383"/>
      <point x="1546" y="281" type="curve" smooth="yes"/>
      <point x="1546" y="177"/>
      <point x="1477" y="102"/>
    </contour>
    <contour>
      <point x="1381" y="-22" type="curve" smooth="yes"/>
      <point x="1563" y="-22"/>
      <point x="1697" y="106"/>
      <point x="1697" y="281" type="curve" smooth="yes"/>
      <point x="1697" y="453"/>
      <point x="1563" y="579"/>
      <point x="1381" y="579" type="curve" smooth="yes"/>
      <point x="1200" y="579"/>
      <point x="1067" y="453"/>
      <point x="1067" y="281" type="curve" smooth="yes"/>
      <point x="1067" y="106"/>
      <point x="1200" y="-22"/>
    </contour>
  </outline>
</glyph>
<glyph name="ampersand" format="1">
  <advance width="1410"/>
  <unicode hex="0026"/>
  <outline>
    <contour>
      <point x="533" y="-20" type="curve" smooth="yes"/>
      <point x="674" y="-20"/>
      <point x="794" y="28"/>
      <point x="904" y="122" type="curve"/>
      <point x="997" y="0" type="line"/>
      <point x="1323" y="0" type="line"/>
      <point x="1323" y="159" type="line"/>
      <point x="1130" y="159" type="line"/>
      <point x="1042" y="267" type="line"/>
      <point x="1101" y="336"/>
      <point x="1146" y="417"/>
      <point x="1182" y="520" type="curve"/>
      <point x="1322" y="521" type="line"/>
      <point x="1322" y="677" type="line"/>
      <point x="1042" y="677" type="line"/>
      <point x="1019" y="583"/>
      <point x="986" y="481"/>
      <point x="926" y="405" type="curve"/>
      <point x="703" y="658" type="line"/>
      <point x="880" y="739"/>
      <point x="951" y="838"/>
      <point x="951" y="966" type="curve" smooth="yes"/>
      <point x="951" y="1106"/>
      <point x="824" y="1221"/>
      <point x="640" y="1221" type="curve" smooth="yes"/>
      <point x="444" y="1221"/>
      <point x="308" y="1105"/>
      <point x="308" y="954" type="curve" smooth="yes"/>
      <point x="308" y="862"/>
      <point x="348" y="787"/>
      <point x="415" y="702" type="curve"/>
      <point x="219" y="625"/>
      <point x="99" y="516"/>
      <point x="99" y="352" type="curve" smooth="yes"/>
      <point x="99" y="145"/>
      <point x="276" y="-20"/>
    </contour>
    <contour>
      <point x="568" y="155" type="curve" smooth="yes"/>
      <point x="424" y="155"/>
      <point x="326" y="261"/>
      <point x="326" y="363" type="curve" smooth="yes"/>
      <point x="326" y="459"/>
      <point x="392" y="530"/>
      <point x="517" y="581" type="curve"/>
      <point x="794" y="254" type="line"/>
      <point x="725" y="184"/>
      <point x="652" y="155"/>
    </contour>
    <contour>
      <point x="605" y="784" type="curve"/>
      <point x="545" y="861"/>
      <point x="513" y="913"/>
      <point x="513" y="964" type="curve" smooth="yes"/>
      <point x="513" y="1034"/>
      <point x="563" y="1076"/>
      <point x="639" y="1076" type="curve" smooth="yes"/>
      <point x="710" y="1076"/>
      <point x="764" y="1032"/>
      <point x="764" y="959" type="curve" smooth="yes"/>
      <point x="764" y="887"/>
      <point x="715" y="836"/>
    </contour>
  </outline>
</glyph>
<glyph name="parenleft" format="1">
  <advance width="636"/>
  <unicode hex="0028"/>
  <outline>
    <contour>
      <point x="542" y="-130" type="curve"/>
      <point x="541" y="13" type="line"/>
      <point x="423" y="94"/>
      <point x="363" y="308"/>
      <point x="363" y="523" type="curve" smooth="yes"/>
      <point x="363" y="737"/>
      <point x="423" y="952"/>
      <point x="541" y="1034" type="curve"/>
      <point x="542" y="1172" type="line"/>
      <point x="247" y="1042"/>
      <point x="98" y="780"/>
      <point x="98" y="520" type="curve" smooth="yes"/>
      <point x="98" y="261"/>
      <point x="246" y="2"/>
    </contour>
  </outline>
</glyph>
<glyph name="parenright" format="1">
  <advance width="636"/>
  <unicode hex="0029"/>
  <outline>
    <contour>
      <point x="136" y="-130" type="line"/>
      <point x="432" y="2"/>
      <point x="580" y="261"/>
      <point x="580" y="520" type="curve" smooth="yes"/>
      <point x="580" y="780"/>
      <point x="431" y="1042"/>
      <point x="136" y="1172" type="curve"/>
      <point x="137" y="1034" type="line"/>
      <point x="255" y="952"/>
      <point x="315" y="737"/>
      <point x="315" y="523" type="curve" smooth="yes"/>
      <point x="315" y="308"/>
      <point x="255" y="94"/>
      <point x="137" y="13" type="curve"/>
    </contour>
  </outline>
</glyph>
<glyph name="asterisk" format="1">
  <advance width="928"/>
  <unicode hex="002A"/>
  <outline>
    <contour>
      <point x="306" y="408" type="line"/>
      <point x="465" y="739" type="line"/>
      <point x="625" y="408" type="line"/>
      <point x="778" y="518" type="line"/>
      <point x="523" y="771" type="line"/>
      <point x="873" y="823" type="line"/>
      <point x="822" y="998" type="line"/>
      <point x="492" y="830" type="line"/>
      <point x="559" y="1190" type="line"/>
      <point x="373" y="1190" type="line"/>
      <point x="439" y="830" type="line"/>
      <point x="110" y="998" type="line"/>
      <point x="58" y="823" type="line"/>
      <point x="409" y="771" type="line"/>
      <point x="152" y="518" type="line"/>
    </contour>
  </outline>
</glyph>
<glyph name="comma" format="1">
  <advance width="587"/>
  <unicode hex="002C"/>
  <outline>
    <contour>
      <point x="182" y="-273" type="line"/>
      <point x="393" y="-272"/>
      <point x="459" y="-182"/>
      <point x="459" y="27" type="curve" smooth="yes"/>
      <point x="459" y="82"/>
      <point x="455" y="218"/>
      <point x="450" y="261" type="curve"/>
      <point x="404" y="261"/>
      <point x="221" y="261"/>
      <point x="182" y="257" type="curve"/>
      <point x="182" y="221"/>
      <point x="183" y="36"/>
      <point x="184" y="1" type="curve"/>
      <point x="323" y="1" type="line"/>
      <point x="323" y="-111"/>
      <point x="281" y="-154"/>
      <point x="182" y="-170" type="curve"/>
    </contour>
  </outline>
</glyph>
<glyph name="hyphen" format="1">
  <advance width="635"/>
  <unicode hex="002D"/>
  <outline>
    <contour>
      <point x="307" y="441" type="move" name="_mid"/>
    </contour>
    <contour>
      <point x="69" y="367" type="line"/>
      <point x="566" y="367" type="line"/>
      <point x="566" y="526" type="line"/>
      <point x="69" y="526" type="line"/>
    </contour>
  </outline>
</glyph>
<glyph name="slash" format="1">
  <advance width="695"/>
  <unicode hex="002F"/>
  <outline>
    <contour>
      <point x="143" y="-80" type="line"/>
      <point x="733" y="1207" type="line"/>
      <point x="598" y="1253" type="line"/>
      <point x="6" y="-34" type="line"/>
    </contour>
  </outline>
</glyph>
<glyph name="zero" format="1">
  <advance width="1118"/>
  <unicode hex="0030"/>
  <outline>
    <contour>
      <point x="558" y="142" type="curve" smooth="yes"/>
      <point x="411" y="142"/>
      <point x="337" y="283"/>
      <point x="337" y="556" type="curve" smooth="yes"/>
      <point x="337" y="855"/>
      <point x="411" y="1011"/>
      <point x="558" y="1011" type="curve" smooth="yes"/>
      <point x="706" y="1011"/>
      <point x="781" y="856"/>
      <point x="781" y="557" type="curve" smooth="yes"/>
      <point x="781" y="284"/>
      <point x="706" y="142"/>
    </contour>
    <contour>
      <point x="558" y="-22" type="curve" smooth="yes"/>
      <point x="859" y="-22"/>
      <point x="1010" y="181"/>
      <point x="1010" y="557" type="curve" smooth="yes"/>
      <point x="1010" y="936"/>
      <point x="859" y="1174"/>
      <point x="558" y="1174" type="curve" smooth="yes"/>
      <point x="259" y="1174"/>
      <point x="108" y="935"/>
      <point x="108" y="557" type="curve" smooth="yes"/>
      <point x="108" y="182"/>
      <point x="259" y="-22"/>
    </contour>
  </outline>
</glyph>
<glyph name="one" format="1">
  <advance width="816"/>
  <unicode hex="0031"/>
  <outline>
    <contour>
      <point x="144" y="0" type="line"/>
      <point x="728" y="0" type="line"/>
      <point x="728" y="155" type="line"/>
      <point x="556" y="155" type="line"/>
      <point x="556" y="1151" type="line"/>
      <point x="134" y="1099" type="line"/>
      <point x="134" y="946" type="line"/>
      <point x="326" y="970" type="line"/>
      <point x="326" y="155" type="line"/>
      <point x="144" y="155" type="line"/>
    </contour>
  </outline>
</glyph>
<glyph name="two" format="1">
  <advance width="1065"/>
  <unicode hex="0032"/>
  <outline>
    <contour>
      <point x="141" y="0" type="line"/>
      <point x="951" y="0" type="line"/>
      <point x="948" y="372" type="line"/>
      <point x="772" y="372" type="line"/>
      <point x="770" y="163" type="line"/>
      <point x="409" y="163" type="line"/>
      <point x="657" y="406" type="line" smooth="yes"/>
      <point x="788" y="536"/>
      <point x="940" y="668"/>
      <point x="940" y="829" type="curve"/>
      <point x="940" y="1053"/>
      <point x="771" y="1174"/>
      <point x="530" y="1174" type="curve"/>
      <point x="271" y="1174"/>
      <point x="127" y="1027"/>
      <point x="127" y="827" type="curve"/>
      <point x="127" y="776"/>
      <point x="137" y="723"/>
      <point x="155" y="671" type="curve"/>
      <point x="351" y="671" type="line"/>
      <point x="338" y="718"/>
      <point x="332" y="760"/>
      <point x="332" y="798" type="curve"/>
      <point x="332" y="929"/>
      <point x="409" y="997"/>
      <point x="531" y="997" type="curve"/>
      <point x="663" y="997"/>
      <point x="709" y="920"/>
      <point x="713" y="827" type="curve"/>
      <point x="717" y="742"/>
      <point x="611" y="642"/>
      <point x="511" y="540" type="curve" smooth="yes"/>
      <point x="142" y="169" type="line"/>
    </contour>
  </outline>
</glyph>
<glyph name="three" format="1">
  <advance width="1093"/>
  <unicode hex="0033"/>
  <outline>
    <contour>
      <point x="533" y="-22" type="curve" smooth="yes"/>
      <point x="820" y="-22"/>
      <point x="985" y="127"/>
      <point x="985" y="343" type="curve" smooth="yes"/>
      <point x="985" y="482"/>
      <point x="894" y="574"/>
      <point x="738" y="612" type="curve"/>
      <point x="862" y="649"/>
      <point x="937" y="740"/>
      <point x="937" y="864" type="curve" smooth="yes"/>
      <point x="937" y="1035"/>
      <point x="790" y="1174"/>
      <point x="523" y="1174" type="curve" smooth="yes"/>
      <point x="337" y="1174"/>
      <point x="153" y="1084"/>
      <point x="91" y="922" type="curve"/>
      <point x="270" y="842" type="line"/>
      <point x="304" y="937"/>
      <point x="392" y="1001"/>
      <point x="516" y="1001" type="curve" smooth="yes"/>
      <point x="633" y="1001"/>
      <point x="714" y="936"/>
      <point x="714" y="855" type="curve" smooth="yes"/>
      <point x="714" y="746"/>
      <point x="649" y="680"/>
      <point x="432" y="680" type="curve"/>
      <point x="432" y="520" type="line"/>
      <point x="658" y="520"/>
      <point x="749" y="468"/>
      <point x="755" y="346" type="curve" smooth="yes"/>
      <point x="760" y="225"/>
      <point x="668" y="152"/>
      <point x="535" y="152" type="curve" smooth="yes"/>
      <point x="409" y="152"/>
      <point x="314" y="212"/>
      <point x="268" y="334" type="curve"/>
      <point x="94" y="243" type="line"/>
      <point x="143" y="81"/>
      <point x="316" y="-22"/>
    </contour>
  </outline>
</glyph>
<glyph name="four" format="1">
  <advance width="1017"/>
  <unicode hex="0034"/>
  <outline>
    <contour>
      <point x="364" y="0" type="line"/>
      <point x="883" y="0" type="line"/>
      <point x="883" y="155" type="line"/>
      <point x="741" y="155" type="line"/>
      <point x="741" y="345" type="line"/>
      <point x="915" y="345" type="line"/>
      <point x="915" y="491" type="line"/>
      <point x="741" y="491" type="line"/>
      <point x="741" y="1152" type="line"/>
      <point x="528" y="1152" type="line"/>
      <point x="35" y="506" type="line"/>
      <point x="56" y="345" type="line"/>
      <point x="530" y="345" type="line"/>
      <point x="530" y="155" type="line"/>
      <point x="364" y="155" type="line"/>
    </contour>
    <contour>
      <point x="227" y="491" type="line"/>
      <point x="530" y="914" type="line"/>
      <point x="530" y="491" type="line"/>
    </contour>
  </outline>
</glyph>
<glyph name="five" format="1">
  <advance width="1082"/>
  <unicode hex="0035"/>
  <outline>
    <contour>
      <point x="544" y="-22" type="curve"/>
      <point x="820" y="-22"/>
      <point x="989" y="125"/>
      <point x="989" y="363" type="curve"/>
      <point x="989" y="600"/>
      <point x="839" y="745"/>
      <point x="593" y="745" type="curve"/>
      <point x="508" y="745"/>
      <point x="417" y="711"/>
      <point x="357" y="654" type="curve"/>
      <point x="373" y="986" type="line"/>
      <point x="737" y="986" type="line"/>
      <point x="737" y="837" type="line"/>
      <point x="925" y="837" type="line"/>
      <point x="925" y="1152" type="line"/>
      <point x="181" y="1152" type="line"/>
      <point x="157" y="531" type="line"/>
      <point x="329" y="460" type="line"/>
      <point x="393" y="529"/>
      <point x="495" y="562"/>
      <point x="558" y="562" type="curve"/>
      <point x="683" y="562"/>
      <point x="758" y="487"/>
      <point x="758" y="364" type="curve"/>
      <point x="758" y="237"/>
      <point x="675" y="160"/>
      <point x="539" y="160" type="curve"/>
      <point x="412" y="160"/>
      <point x="307" y="219"/>
      <point x="234" y="308" type="curve"/>
      <point x="108" y="163" type="line"/>
      <point x="200" y="53"/>
      <point x="346" y="-22"/>
    </contour>
  </outline>
</glyph>
<glyph name="six" format="1">
  <advance width="1030"/>
  <unicode hex="0036"/>
  <outline>
    <contour>
      <point x="524" y="-20" type="curve" smooth="yes"/>
      <point x="787" y="-20"/>
      <point x="949" y="141"/>
      <point x="949" y="402" type="curve" smooth="yes"/>
      <point x="949" y="617"/>
      <point x="783" y="771"/>
      <point x="585" y="771" type="curve" smooth="yes"/>
      <point x="453" y="771"/>
      <point x="372" y="694"/>
      <point x="369" y="679" type="curve"/>
      <point x="740" y="1146" type="line"/>
      <point x="573" y="1271" type="line"/>
      <point x="221" y="795" type="line" smooth="yes"/>
      <point x="95" y="630"/>
      <point x="84" y="510"/>
      <point x="84" y="384" type="curve" smooth="yes"/>
      <point x="84" y="147"/>
      <point x="261" y="-20"/>
    </contour>
    <contour>
      <point x="530" y="147" type="curve" smooth="yes"/>
      <point x="380" y="147"/>
      <point x="315" y="253"/>
      <point x="315" y="387" type="curve" smooth="yes"/>
      <point x="315" y="530"/>
      <point x="413" y="614"/>
      <point x="539" y="614" type="curve" smooth="yes"/>
      <point x="666" y="614"/>
      <point x="736" y="522"/>
      <point x="736" y="390" type="curve" smooth="yes"/>
      <point x="736" y="246"/>
      <point x="659" y="147"/>
    </contour>
  </outline>
</glyph>
<glyph name="seven" format="1">
  <advance width="1036"/>
  <unicode hex="0037"/>
  <outline>
    <contour>
      <point x="302" y="0" type="curve"/>
      <point x="560" y="0" type="line"/>
      <point x="560" y="0"/>
      <point x="688" y="505"/>
      <point x="960" y="989" type="curve"/>
      <point x="960" y="1152" type="line"/>
      <point x="122" y="1152" type="line"/>
      <point x="122" y="794" type="line"/>
      <point x="318" y="794" type="line"/>
      <point x="318" y="991" type="line"/>
      <point x="699" y="991" type="line"/>
      <point x="457" y="538"/>
      <point x="302" y="0"/>
    </contour>
  </outline>
</glyph>
<glyph name="eight" format="1">
  <advance width="1127"/>
  <unicode hex="0038"/>
  <outline>
    <contour>
      <point x="566" y="-22" type="curve"/>
      <point x="848" y="-22"/>
      <point x="1013" y="124"/>
      <point x="1013" y="313" type="curve"/>
      <point x="1013" y="449"/>
      <point x="938" y="555"/>
      <point x="790" y="602" type="curve"/>
      <point x="919" y="659"/>
      <point x="975" y="750"/>
      <point x="975" y="866" type="curve"/>
      <point x="975" y="1049"/>
      <point x="813" y="1174"/>
      <point x="563" y="1174" type="curve"/>
      <point x="313" y="1174"/>
      <point x="151" y="1047"/>
      <point x="151" y="865" type="curve"/>
      <point x="151" y="748"/>
      <point x="210" y="655"/>
      <point x="338" y="598" type="curve"/>
      <point x="189" y="553"/>
      <point x="114" y="449"/>
      <point x="114" y="313" type="curve"/>
      <point x="114" y="127"/>
      <point x="272" y="-22"/>
    </contour>
    <contour>
      <point x="566" y="131" type="curve"/>
      <point x="439" y="131"/>
      <point x="360" y="208"/>
      <point x="360" y="320" type="curve"/>
      <point x="360" y="441"/>
      <point x="450" y="532"/>
      <point x="475" y="538" type="curve"/>
      <point x="646" y="497"/>
      <point x="768" y="454"/>
      <point x="768" y="319" type="curve"/>
      <point x="768" y="207"/>
      <point x="689" y="131"/>
    </contour>
    <contour>
      <point x="635" y="655" type="curve"/>
      <point x="498" y="684"/>
      <point x="384" y="736"/>
      <point x="384" y="851" type="curve"/>
      <point x="384" y="956"/>
      <point x="450" y="1023"/>
      <point x="563" y="1023" type="curve"/>
      <point x="681" y="1023"/>
      <point x="745" y="952"/>
      <point x="745" y="851" type="curve"/>
      <point x="745" y="745"/>
      <point x="657" y="660"/>
    </contour>
  </outline>
</glyph>
<glyph name="nine" format="1">
  <advance width="1029"/>
  <unicode hex="0039"/>
  <outline>
    <contour>
      <point x="460" y="-117" type="line"/>
      <point x="812" y="361" type="line" smooth="yes"/>
      <point x="939" y="528"/>
      <point x="952" y="647"/>
      <point x="952" y="773" type="curve" smooth="yes"/>
      <point x="952" y="1010"/>
      <point x="775" y="1174"/>
      <point x="510" y="1174" type="curve" smooth="yes"/>
      <point x="248" y="1174"/>
      <point x="86" y="1014"/>
      <point x="86" y="753" type="curve" smooth="yes"/>
      <point x="86" y="539"/>
      <point x="258" y="388"/>
      <point x="455" y="388" type="curve" smooth="yes"/>
      <point x="589" y="388"/>
      <point x="660" y="463"/>
      <point x="660" y="478" type="curve"/>
      <point x="291" y="8" type="line"/>
    </contour>
    <contour>
      <point x="496" y="544" type="curve" smooth="yes"/>
      <point x="370" y="544"/>
      <point x="299" y="636"/>
      <point x="299" y="766" type="curve" smooth="yes"/>
      <point x="299" y="910"/>
      <point x="377" y="1008"/>
      <point x="505" y="1008" type="curve" smooth="yes"/>
      <point x="655" y="1008"/>
      <point x="719" y="904"/>
      <point x="719" y="770" type="curve" smooth="yes"/>
      <point x="719" y="628"/>
      <point x="622" y="544"/>
    </contour>
  </outline>
</glyph>
<glyph name="semicolon" format="1">
  <advance width="578"/>
  <unicode hex="003B"/>
  <outline>
    <contour>
      <point x="163" y="-210" type="line"/>
      <point x="380" y="-209"/>
      <point x="440" y="-122"/>
      <point x="440" y="76" type="curve" smooth="yes"/>
      <point x="440" y="95"/>
      <point x="438" y="313"/>
      <point x="436" y="328" type="curve"/>
      <point x="163" y="327" type="line"/>
      <point x="164" y="64" type="line"/>
      <point x="305" y="64" type="line"/>
      <point x="305" y="-48"/>
      <point x="271" y="-98"/>
      <point x="163" y="-106" type="curve"/>
    </contour>
    <contour>
      <point x="161" y="628" type="line"/>
      <point x="430" y="628" type="line"/>
      <point x="430" y="892" type="line"/>
      <point x="161" y="892" type="line"/>
    </contour>
  </outline>
</glyph>
<glyph name="less" format="1">
  <advance width="1114"/>
  <unicode hex="003C"/>
  <outline>
    <contour>
      <point x="948" y="90" type="line"/>
      <point x="948" y="275" type="line"/>
      <point x="226" y="597" type="line"/>
      <point x="948" y="920" type="line"/>
      <point x="948" y="1103" type="line"/>
      <point x="26" y="680" type="line"/>
      <point x="26" y="509" type="line"/>
    </contour>
  </outline>
</glyph>
<glyph name="greater" format="1">
  <advance width="1116"/>
  <unicode hex="003E"/>
  <outline>
    <contour>
      <point x="169" y="90" type="line"/>
      <point x="1090" y="509" type="line"/>
      <point x="1090" y="680" type="line"/>
      <point x="169" y="1103" type="line"/>
      <point x="169" y="920" type="line"/>
      <point x="890" y="597" type="line"/>
      <point x="169" y="275" type="line"/>
    </contour>
  </outline>
</glyph>
<glyph name="question" format="1">
  <advance width="916"/>
  <unicode hex="003F"/>
  <outline>
    <contour>
      <point x="349" y="354" type="curve"/>
      <point x="503" y="354" type="line"/>
      <point x="536" y="701"/>
      <point x="844" y="604"/>
      <point x="844" y="909" type="curve" smooth="yes"/>
      <point x="844" y="1095"/>
      <point x="703" y="1237"/>
      <point x="469" y="1237" type="curve" smooth="yes"/>
      <point x="263" y="1237"/>
      <point x="75" y="1142"/>
      <point x="75" y="876" type="curve"/>
      <point x="269" y="876" type="line"/>
      <point x="269" y="1006"/>
      <point x="334" y="1079"/>
      <point x="465" y="1079" type="curve" smooth="yes"/>
      <point x="568" y="1079"/>
      <point x="638" y="1010"/>
      <point x="638" y="908" type="curve" smooth="yes"/>
      <point x="638" y="701"/>
      <point x="366" y="797"/>
    </contour>
    <contour>
      <point x="321" y="0" type="line"/>
      <point x="544" y="0" type="line"/>
      <point x="544" y="222" type="line"/>
      <point x="321" y="222" type="line"/>
    </contour>
  </outline>
</glyph>
<glyph name="A" format="1">
  <advance width="1434"/>
  <unicode hex="0041"/>
  <outline>
    <contour>
      <point x="712" y="1152" type="move" name="top"/>
    </contour>
    <contour>
      <point x="1130" y="0" type="move" name="ogonek"/>
    </contour>
    <contour>
      <point x="45" y="0" type="line"/>
      <point x="567" y="0" type="line"/>
      <point x="567" y="155" type="line"/>
      <point x="407" y="155" type="line"/>
      <point x="496" y="424" type="line"/>
      <point x="889" y="424" type="line"/>
      <point x="980" y="155" type="line"/>
      <point x="818" y="155" type="line"/>
      <point x="818" y="0" type="line"/>
      <point x="1388" y="0" type="line"/>
      <point x="1388" y="155" type="line"/>
      <point x="1250" y="155" type="line"/>
      <point x="936" y="998" type="line"/>
      <point x="1063" y="998" type="line"/>
      <point x="1063" y="1152" type="line"/>
      <point x="366" y="1152" type="line"/>
      <point x="366" y="998" type="line"/>
      <point x="495" y="998" type="line"/>
      <point x="189" y="155" type="line"/>
      <point x="45" y="155" type="line"/>
    </contour>
    <contour>
      <point x="539" y="567" type="line"/>
      <point x="687" y="995" type="line"/>
      <point x="703" y="995" type="line"/>
      <point x="846" y="567" type="line"/>
    </contour>
  </outline>
</glyph>
<glyph name="B" format="1">
  <advance width="1193"/>
  <unicode hex="0042"/>
  <outline>
    <contour>
      <point x="517" y="1152" type="move" name="top"/>
    </contour>
    <contour>
      <point x="346" y="0" type="line"/>
      <point x="645" y="0" type="line" smooth="yes"/>
      <point x="1023" y="0"/>
      <point x="1126" y="173"/>
      <point x="1126" y="335" type="curve" smooth="yes"/>
      <point x="1126" y="472"/>
      <point x="1043" y="579"/>
      <point x="884" y="619" type="curve"/>
      <point x="997" y="659"/>
      <point x="1069" y="744"/>
      <point x="1069" y="869" type="curve" smooth="yes"/>
      <point x="1069" y="1048"/>
      <point x="925" y="1152"/>
      <point x="642" y="1152" type="curve" smooth="yes"/>
      <point x="346" y="1152" type="line"/>
      <point x="346" y="999" type="line"/>
      <point x="568" y="999" type="line" smooth="yes"/>
      <point x="747" y="999"/>
      <point x="816" y="961"/>
      <point x="816" y="851" type="curve" smooth="yes"/>
      <point x="816" y="742"/>
      <point x="749" y="686"/>
      <point x="586" y="686" type="curve" smooth="yes"/>
      <point x="352" y="686" type="line"/>
      <point x="352" y="532" type="line"/>
      <point x="610" y="532" type="line" smooth="yes"/>
      <point x="795" y="532"/>
      <point x="867" y="454"/>
      <point x="867" y="347" type="curve" smooth="yes"/>
      <point x="867" y="228"/>
      <point x="803" y="155"/>
      <point x="606" y="155" type="curve" smooth="yes"/>
      <point x="346" y="155" type="line"/>
    </contour>
    <component base="uc_main_stem" xOffset="-88"/>
  </outline>
</glyph>
<glyph name="C" format="1">
  <advance width="1368"/>
  <unicode hex="0043"/>
  <outline>
    <contour>
      <point x="719" y="1152" type="move" name="top"/>
    </contour>
    <contour>
      <point x="690" y="0" type="move" name="bot"/>
    </contour>
    <contour>
      <point x="712" y="-22" type="curve" smooth="yes"/>
      <point x="980" y="-20"/>
      <point x="1197" y="84"/>
      <point x="1276" y="357" type="curve"/>
      <point x="1090" y="433" type="line"/>
      <point x="1042" y="233"/>
      <point x="892" y="156"/>
      <point x="727" y="156" type="curve" smooth="yes"/>
      <point x="486" y="156"/>
      <point x="340" y="336"/>
      <point x="340" y="578" type="curve" smooth="yes"/>
      <point x="340" y="825"/>
      <point x="494" y="996"/>
      <point x="727" y="996" type="curve" smooth="yes"/>
      <point x="875" y="996"/>
      <point x="1000" y="936"/>
      <point x="1073" y="775" type="curve"/>
      <point x="1243" y="775" type="line"/>
      <point x="1243" y="1154" type="line"/>
      <point x="1071" y="1154" type="line"/>
      <point x="1071" y="1034" type="line"/>
      <point x="998" y="1106"/>
      <point x="880" y="1174"/>
      <point x="713" y="1174" type="curve" smooth="yes"/>
      <point x="336" y="1174"/>
      <point x="88" y="932"/>
      <point x="88" y="574" type="curve" smooth="yes"/>
      <point x="88" y="241"/>
      <point x="313" y="-20"/>
    </contour>
  </outline>
</glyph>
<glyph name="D" format="1">
  <advance width="1419"/>
  <unicode hex="0044"/>
  <outline>
    <contour>
      <point x="615" y="1151" type="move" name="top"/>
    </contour>
    <contour>
      <point x="341" y="605" type="move" name="mid"/>
    </contour>
    <contour>
      <point x="131" y="0" type="line"/>
      <point x="689" y="0" type="line" smooth="yes"/>
      <point x="1117" y="0"/>
      <point x="1332" y="218"/>
      <point x="1332" y="592" type="curve" smooth="yes"/>
      <point x="1332" y="892"/>
      <point x="1124" y="1152"/>
      <point x="690" y="1152" type="curve" smooth="yes"/>
      <point x="131" y="1152" type="line"/>
      <point x="131" y="998" type="line"/>
      <point x="681" y="998" type="line" smooth="yes"/>
      <point x="955" y="998"/>
      <point x="1070" y="810"/>
      <point x="1070" y="587" type="curve" smooth="yes"/>
      <point x="1070" y="325"/>
      <point x="958" y="155"/>
      <point x="674" y="155" type="curve" smooth="yes"/>
      <point x="131" y="155" type="line"/>
    </contour>
    <component base="uc_main_stem" xOffset="-85"/>
  </outline>
</glyph>
<glyph name="E" format="1">
  <advance width="1200"/>
  <unicode hex="0045"/>
  <outline>
    <contour>
      <point x="630" y="1152" type="move" name="top"/>
    </contour>
    <contour>
      <point x="718" y="0" type="move" name="ogonek"/>
    </contour>
    <contour>
      <point x="624" y="0" type="move" name="bot"/>
    </contour>
    <contour>
      <point x="760" y="410" type="line"/>
      <point x="863" y="410" type="line"/>
      <point x="863" y="799" type="line"/>
      <point x="760" y="799" type="line"/>
      <point x="760" y="682" type="line"/>
      <point x="356" y="682" type="line"/>
      <point x="357" y="522" type="line"/>
      <point x="760" y="522" type="line"/>
    </contour>
    <contour>
      <point x="345" y="0" type="line"/>
      <point x="1124" y="0" type="line"/>
      <point x="1124" y="370" type="line"/>
      <point x="937" y="370" type="line"/>
      <point x="937" y="155" type="line"/>
      <point x="345" y="155" type="line"/>
    </contour>
    <contour>
      <point x="935" y="796" type="line"/>
      <point x="1121" y="796" type="line"/>
      <point x="1121" y="1152" type="line"/>
      <point x="345" y="1152" type="line"/>
      <point x="345" y="997" type="line"/>
      <point x="935" y="998" type="line"/>
    </contour>
    <component base="uc_main_stem" xOffset="-87"/>
  </outline>
</glyph>
<glyph name="G" format="1">
  <advance width="1430"/>
  <unicode hex="0047"/>
  <outline>
    <contour>
      <point x="742" y="1152" type="move" name="top"/>
    </contour>
    <contour>
      <point x="729" y="0" type="move" name="bot"/>
    </contour>
    <contour>
      <point x="750" y="-20" type="curve" smooth="yes"/>
      <point x="1130" y="-20"/>
      <point x="1347" y="166"/>
      <point x="1351" y="599" type="curve"/>
      <point x="876" y="599" type="line"/>
      <point x="876" y="438" type="line"/>
      <point x="1109" y="438" type="line"/>
      <point x="1102" y="264"/>
      <point x="985" y="162"/>
      <point x="759" y="158" type="curve" smooth="yes"/>
      <point x="518" y="158"/>
      <point x="356" y="320"/>
      <point x="356" y="589" type="curve" smooth="yes"/>
      <point x="356" y="842"/>
      <point x="509" y="997"/>
      <point x="756" y="997" type="curve" smooth="yes"/>
      <point x="923" y="997"/>
      <point x="1051" y="918"/>
      <point x="1125" y="761" type="curve"/>
      <point x="1297" y="761" type="line"/>
      <point x="1297" y="1158" type="line"/>
      <point x="1109" y="1158" type="line"/>
      <point x="1109" y="1031" type="line"/>
      <point x="1034" y="1112"/>
      <point x="903" y="1174"/>
      <point x="743" y="1174" type="curve" smooth="yes"/>
      <point x="364" y="1174"/>
      <point x="91" y="946"/>
      <point x="91" y="589" type="curve" smooth="yes"/>
      <point x="91" y="215"/>
      <point x="346" y="-20"/>
    </contour>
  </outline>
</glyph>
<glyph name="H" format="1">
  <advance width="1442"/>
  <unicode hex="0048"/>
  <outline>
    <contour>
      <point x="730" y="1152" type="move" name="top"/>
    </contour>
    <contour>
      <point x="718" y="0" type="move" name="bot"/>
    </contour>
    <contour>
      <point x="351" y="513" type="line"/>
      <point x="1106" y="513" type="line"/>
      <point x="1106" y="676" type="line"/>
      <point x="351" y="676" type="line"/>
    </contour>
    <component base="uc_main_stem" xOffset="678"/>
    <component base="uc_main_stem" xOffset="-87"/>
  </outline>
</glyph>
<glyph name="J" format="1">
  <advance width="744"/>
  <unicode hex="004A"/>
  <outline>
    <contour>
      <point x="413" y="1152" type="move" name="top"/>
    </contour>
    <contour>
      <point x="46" y="-299" type="line"/>
      <point x="221" y="-299" type="line" smooth="yes"/>
      <point x="471" y="-299"/>
      <point x="542" y="-148"/>
      <point x="542" y="82" type="curve" smooth="yes"/>
      <point x="542" y="998" type="line"/>
      <point x="709" y="998" type="line"/>
      <point x="709" y="1152" type="line"/>
      <point x="115" y="1152" type="line"/>
      <point x="115" y="998" type="line"/>
      <point x="292" y="998" type="line"/>
      <point x="292" y="66" type="line" smooth="yes"/>
      <point x="292" y="-25"/>
      <point x="272" y="-105"/>
      <point x="164" y="-105" type="curve" smooth="yes"/>
      <point x="46" y="-105" type="line"/>
    </contour>
  </outline>
</glyph>
<glyph name="K" format="1">
  <advance width="1356"/>
  <unicode hex="004B"/>
  <outline>
    <contour>
      <point x="683" y="1152" type="move" name="top"/>
    </contour>
    <contour>
      <point x="674" y="0" type="move" name="bot"/>
    </contour>
    <contour>
      <point x="738" y="0" type="line"/>
      <point x="1312" y="0" type="line"/>
      <point x="1312" y="155" type="line"/>
      <point x="1168" y="155" type="line"/>
      <point x="720" y="593" type="line"/>
      <point x="1159" y="998" type="line"/>
      <point x="1308" y="998" type="line"/>
      <point x="1308" y="1152" type="line"/>
      <point x="760" y="1152" type="line"/>
      <point x="760" y="998" type="line"/>
      <point x="889" y="998" type="line"/>
      <point x="428" y="577" type="line"/>
      <point x="857" y="155" type="line"/>
      <point x="738" y="155" type="line"/>
    </contour>
    <component base="uc_main_stem" xOffset="-87"/>
  </outline>
</glyph>
<glyph name="L" format="1">
  <advance width="1133"/>
  <unicode hex="004C"/>
  <outline>
    <contour>
      <point x="691" y="1152" type="move" name="top"/>
    </contour>
    <contour>
      <point x="734" y="826" type="move" name="caron.alt"/>
    </contour>
    <contour>
      <point x="556" y="0" type="move" name="bot"/>
    </contour>
    <contour>
      <point x="669" y="714" type="move" name="mid"/>
    </contour>
    <contour>
      <point x="342" y="0" type="line"/>
      <point x="1077" y="0" type="line"/>
      <point x="1077" y="519" type="line"/>
      <point x="872" y="519" type="line"/>
      <point x="872" y="155" type="line"/>
      <point x="342" y="155" type="line"/>
    </contour>
    <component base="uc_main_stem" xOffset="-87"/>
  </outline>
</glyph>
<glyph name="M" format="1">
  <advance width="1776"/>
  <unicode hex="004D"/>
  <outline>
    <contour>
      <point x="885" y="1152" type="move" name="top"/>
    </contour>
    <contour>
      <point x="56" y="0" type="line"/>
      <point x="540" y="0" type="line"/>
      <point x="540" y="155" type="line"/>
      <point x="392" y="155" type="line"/>
      <point x="392" y="981" type="line"/>
      <point x="808" y="37" type="line"/>
      <point x="901" y="37" type="line"/>
      <point x="1320" y="982" type="line"/>
      <point x="1320" y="155" type="line"/>
      <point x="1169" y="155" type="line"/>
      <point x="1169" y="0" type="line"/>
      <point x="1723" y="0" type="line"/>
      <point x="1723" y="155" type="line"/>
      <point x="1561" y="155" type="line"/>
      <point x="1561" y="998" type="line"/>
      <point x="1722" y="998" type="line"/>
      <point x="1722" y="1152" type="line"/>
      <point x="1203" y="1152" type="line"/>
      <point x="890" y="432" type="line"/>
      <point x="569" y="1152" type="line"/>
      <point x="56" y="1152" type="line"/>
      <point x="56" y="998" type="line"/>
      <point x="216" y="998" type="line"/>
      <point x="216" y="155" type="line"/>
      <point x="56" y="155" type="line"/>
    </contour>
  </outline>
</glyph>
<glyph name="N" format="1">
  <advance width="1521"/>
  <unicode hex="004E"/>
  <outline>
    <contour>
      <point x="752" y="1152" type="move" name="top"/>
    </contour>
    <contour>
      <point x="765" y="0" type="move" name="bot"/>
    </contour>
    <contour>
      <point x="56" y="0" type="line"/>
      <point x="581" y="0" type="line"/>
      <point x="581" y="155" type="line"/>
      <point x="410" y="155" type="line"/>
      <point x="410" y="913" type="line"/>
      <point x="1075" y="0" type="line"/>
      <point x="1301" y="0" type="line"/>
      <point x="1301" y="998" type="line"/>
      <point x="1481" y="998" type="line"/>
      <point x="1481" y="1152" type="line"/>
      <point x="951" y="1152" type="line"/>
      <point x="951" y="998" type="line"/>
      <point x="1120" y="998" type="line"/>
      <point x="1120" y="333" type="line"/>
      <point x="519" y="1152" type="line"/>
      <point x="56" y="1152" type="line"/>
      <point x="56" y="998" type="line"/>
      <point x="231" y="998" type="line"/>
      <point x="231" y="155" type="line"/>
      <point x="56" y="155" type="line"/>
    </contour>
  </outline>
</glyph>
<glyph name="O" format="1">
  <advance width="1470"/>
  <unicode hex="004F"/>
  <outline>
    <contour>
      <point x="730" y="1151" type="move" name="top"/>
    </contour>
    <contour>
      <point x="796" y="0" type="move" name="ogonek"/>
    </contour>
    <contour>
      <point x="734" y="156" type="curve" smooth="yes"/>
      <point x="515" y="156"/>
      <point x="353" y="333"/>
      <point x="353" y="574" type="curve" smooth="yes"/>
      <point x="353" y="819"/>
      <point x="515" y="998"/>
      <point x="734" y="998" type="curve" smooth="yes"/>
      <point x="954" y="998"/>
      <point x="1116" y="819"/>
      <point x="1116" y="575" type="curve" smooth="yes"/>
      <point x="1116" y="333"/>
      <point x="953" y="156"/>
    </contour>
    <contour>
      <point x="734" y="-22" type="curve" smooth="yes"/>
      <point x="1108" y="-23"/>
      <point x="1382" y="228"/>
      <point x="1382" y="573" type="curve" smooth="yes"/>
      <point x="1382" y="919"/>
      <point x="1108" y="1174"/>
      <point x="734" y="1174" type="curve" smooth="yes"/>
      <point x="361" y="1174"/>
      <point x="88" y="920"/>
      <point x="88" y="573" type="curve" smooth="yes"/>
      <point x="88" y="228"/>
      <point x="362" y="-23"/>
    </contour>
  </outline>
</glyph>
<glyph name="P" format="1">
  <advance width="1160"/>
  <unicode hex="0050"/>
  <outline>
    <contour>
      <point x="569" y="1152" type="move" name="top"/>
    </contour>
    <contour>
      <point x="536" y="464" type="line"/>
      <point x="608" y="464" type="line" smooth="yes"/>
      <point x="966" y="464"/>
      <point x="1123" y="581"/>
      <point x="1123" y="813" type="curve" smooth="yes"/>
      <point x="1123" y="1044"/>
      <point x="956" y="1152"/>
      <point x="638" y="1152" type="curve" smooth="yes"/>
      <point x="350" y="1152" type="line"/>
      <point x="350" y="998" type="line"/>
      <point x="661" y="998" type="line" smooth="yes"/>
      <point x="791" y="998"/>
      <point x="866" y="936"/>
      <point x="866" y="813" type="curve" smooth="yes"/>
      <point x="866" y="684"/>
      <point x="782" y="616"/>
      <point x="605" y="616" type="curve" smooth="yes"/>
      <point x="536" y="616" type="line"/>
    </contour>
    <component base="uc_main_stem" xOffset="-87"/>
  </outline>
</glyph>
<glyph name="Q" format="1">
  <advance width="1470"/>
  <unicode hex="0051"/>
  <outline>
    <contour>
      <point x="1259" y="-304" type="curve"/>
      <point x="1258" y="-139" type="line"/>
      <point x="1109" y="-150"/>
      <point x="905" y="-90"/>
      <point x="831" y="58" type="curve"/>
      <point x="595" y="61" type="line"/>
      <point x="748" y="-235"/>
      <point x="1079" y="-318"/>
    </contour>
    <component base="O"/>
  </outline>
</glyph>
<glyph name="R" format="1">
  <advance width="1306"/>
  <unicode hex="0052"/>
  <outline>
    <contour>
      <point x="578" y="1152" type="move" name="top"/>
    </contour>
    <contour>
      <point x="663" y="0" type="move" name="bot"/>
    </contour>
    <contour>
      <point x="921" y="0" type="line"/>
      <point x="1270" y="0" type="line"/>
      <point x="1270" y="155" type="line"/>
      <point x="1100" y="155" type="line"/>
      <point x="871" y="542" type="line"/>
      <point x="1037" y="585"/>
      <point x="1135" y="673"/>
      <point x="1135" y="850" type="curve" smooth="yes"/>
      <point x="1135" y="1084"/>
      <point x="951" y="1152"/>
      <point x="701" y="1152" type="curve" smooth="yes"/>
      <point x="347" y="1152" type="line"/>
      <point x="347" y="998" type="line"/>
      <point x="692" y="998" type="line" smooth="yes"/>
      <point x="820" y="998"/>
      <point x="884" y="936"/>
      <point x="884" y="843" type="curve" smooth="yes"/>
      <point x="884" y="753"/>
      <point x="838" y="672"/>
      <point x="677" y="672" type="curve" smooth="yes"/>
      <point x="528" y="672" type="line"/>
      <point x="528" y="516" type="line"/>
      <point x="634" y="516" type="line"/>
    </contour>
    <component base="uc_main_stem" xOffset="-87"/>
  </outline>
</glyph>
<glyph name="S" format="1">
  <advance width="1066"/>
  <unicode hex="0053"/>
  <outline>
    <contour>
      <point x="554" y="1151" type="move" name="top"/>
    </contour>
    <contour>
      <point x="600" y="0" type="move" name="bot"/>
    </contour>
    <contour>
      <point x="601" y="-20" type="curve" smooth="yes"/>
      <point x="833" y="-20"/>
      <point x="1002" y="123"/>
      <point x="999" y="331" type="curve" smooth="yes"/>
      <point x="997" y="571"/>
      <point x="849" y="640"/>
      <point x="592" y="696" type="curve" smooth="yes"/>
      <point x="419" y="732"/>
      <point x="351" y="773"/>
      <point x="351" y="871" type="curve" smooth="yes"/>
      <point x="351" y="956"/>
      <point x="411" y="1010"/>
      <point x="532" y="1010" type="curve" smooth="yes"/>
      <point x="629" y="1010"/>
      <point x="704" y="975"/>
      <point x="754" y="914" type="curve"/>
      <point x="754" y="817" type="line"/>
      <point x="936" y="817" type="line"/>
      <point x="936" y="1156" type="line"/>
      <point x="754" y="1156" type="line"/>
      <point x="754" y="1081" type="line"/>
      <point x="695" y="1138"/>
      <point x="610" y="1174"/>
      <point x="504" y="1174" type="curve" smooth="yes"/>
      <point x="264" y="1174"/>
      <point x="118" y="1053"/>
      <point x="118" y="857" type="curve" smooth="yes"/>
      <point x="118" y="625"/>
      <point x="275" y="550"/>
      <point x="531" y="498" type="curve" smooth="yes"/>
      <point x="696" y="467"/>
      <point x="761" y="421"/>
      <point x="761" y="307" type="curve" smooth="yes"/>
      <point x="761" y="212"/>
      <point x="691" y="147"/>
      <point x="576" y="147" type="curve" smooth="yes"/>
      <point x="463" y="147"/>
      <point x="353" y="212"/>
      <point x="313" y="269" type="curve"/>
      <point x="313" y="400" type="line"/>
      <point x="126" y="400" type="line"/>
      <point x="126" y="-1" type="line"/>
      <point x="313" y="-1" type="line"/>
      <point x="313" y="90" type="line"/>
      <point x="388" y="23"/>
      <point x="490" y="-20"/>
    </contour>
  </outline>
</glyph>
<glyph name="T" format="1">
  <advance width="1187"/>
  <unicode hex="0054"/>
  <outline>
    <contour>
      <point x="595" y="1152" type="move" name="top"/>
    </contour>
    <contour>
      <point x="606" y="0" type="move" name="bot"/>
    </contour>
    <contour>
      <point x="595" y="608" type="move" name="mid"/>
    </contour>
    <contour>
      <point x="43" y="722" type="line"/>
      <point x="220" y="722" type="line"/>
      <point x="220" y="998" type="line"/>
      <point x="967" y="998" type="line"/>
      <point x="967" y="722" type="line"/>
      <point x="1144" y="722" type="line"/>
      <point x="1144" y="1152" type="line"/>
      <point x="43" y="1152" type="line"/>
    </contour>
    <component base="uc_main_stem" xOffset="175"/>
  </outline>
</glyph>
<glyph name="U" format="1">
  <advance width="1370"/>
  <unicode hex="0055"/>
  <outline>
    <contour>
      <point x="719" y="1152" type="move" name="top"/>
    </contour>
    <contour>
      <point x="769" y="0" type="move" name="ogonek"/>
    </contour>
    <contour>
      <point x="698" y="-20" type="curve" smooth="yes"/>
      <point x="989" y="-20"/>
      <point x="1181" y="119"/>
      <point x="1181" y="433" type="curve" smooth="yes"/>
      <point x="1181" y="998" type="line"/>
      <point x="1339" y="998" type="line"/>
      <point x="1339" y="1152" type="line"/>
      <point x="829" y="1152" type="line"/>
      <point x="829" y="998" type="line"/>
      <point x="986" y="998" type="line"/>
      <point x="986" y="426" type="line" smooth="yes"/>
      <point x="986" y="251"/>
      <point x="894" y="155"/>
      <point x="712" y="155" type="curve" smooth="yes"/>
      <point x="539" y="155"/>
      <point x="450" y="251"/>
      <point x="450" y="422" type="curve" smooth="yes"/>
      <point x="450" y="998" type="line"/>
      <point x="614" y="998" type="line"/>
      <point x="614" y="1152" type="line"/>
      <point x="43" y="1152" type="line"/>
      <point x="43" y="998" type="line"/>
      <point x="199" y="998" type="line"/>
      <point x="199" y="449" type="line" smooth="yes"/>
      <point x="199" y="174"/>
      <point x="325" y="-20"/>
    </contour>
  </outline>
</glyph>
<glyph name="V" format="1">
  <advance width="1402"/>
  <unicode hex="0056"/>
  <outline>
    <contour>
      <point x="605" y="0" type="line"/>
      <point x="808" y="0" type="line"/>
      <point x="1213" y="998" type="line"/>
      <point x="1369" y="998" type="line"/>
      <point x="1369" y="1152" type="line"/>
      <point x="865" y="1152" type="line"/>
      <point x="865" y="998" type="line"/>
      <point x="1012" y="998" type="line"/>
      <point x="730" y="267" type="line"/>
      <point x="446" y="998" type="line"/>
      <point x="594" y="998" type="line"/>
      <point x="594" y="1152" type="line"/>
      <point x="35" y="1152" type="line"/>
      <point x="35" y="998" type="line"/>
      <point x="185" y="998" type="line"/>
    </contour>
  </outline>
</glyph>
<glyph name="W" format="1">
  <advance width="1891"/>
  <unicode hex="0057"/>
  <outline>
    <contour>
      <point x="978" y="1152" type="move" name="top"/>
    </contour>
    <contour>
      <point x="497" y="0" type="line"/>
      <point x="679" y="0" type="line"/>
      <point x="949" y="771" type="line"/>
      <point x="1222" y="0" type="line"/>
      <point x="1409" y="0" type="line"/>
      <point x="1705" y="998" type="line"/>
      <point x="1849" y="998" type="line"/>
      <point x="1849" y="1152" type="line"/>
      <point x="1376" y="1152" type="line"/>
      <point x="1376" y="998" type="line"/>
      <point x="1521" y="998" type="line"/>
      <point x="1332" y="319" type="line"/>
      <point x="1047" y="1145" type="line"/>
      <point x="903" y="1145" type="line"/>
      <point x="618" y="319" type="line"/>
      <point x="427" y="998" type="line"/>
      <point x="567" y="998" type="line"/>
      <point x="567" y="1152" type="line"/>
      <point x="42" y="1152" type="line"/>
      <point x="42" y="998" type="line"/>
      <point x="187" y="998" type="line"/>
    </contour>
  </outline>
</glyph>
<glyph name="X" format="1">
  <advance width="1354"/>
  <unicode hex="0058"/>
  <outline>
    <contour>
      <point x="38" y="0" type="line"/>
      <point x="562" y="0" type="line"/>
      <point x="562" y="148" type="line"/>
      <point x="420" y="148" type="line"/>
      <point x="646" y="459" type="line"/>
      <point x="870" y="148" type="line"/>
      <point x="734" y="148" type="line"/>
      <point x="734" y="0" type="line"/>
      <point x="1317" y="0" type="line"/>
      <point x="1317" y="148" type="line"/>
      <point x="1151" y="148" type="line"/>
      <point x="804" y="599" type="line"/>
      <point x="1119" y="1004" type="line"/>
      <point x="1282" y="1004" type="line"/>
      <point x="1282" y="1152" type="line"/>
      <point x="774" y="1152" type="line"/>
      <point x="774" y="1004" type="line"/>
      <point x="906" y="1004" type="line"/>
      <point x="698" y="721" type="line"/>
      <point x="488" y="1004" type="line"/>
      <point x="615" y="1004" type="line"/>
      <point x="615" y="1152" type="line"/>
      <point x="52" y="1152" type="line"/>
      <point x="52" y="1004" type="line"/>
      <point x="207" y="1004" type="line"/>
      <point x="537" y="582" type="line"/>
      <point x="205" y="148" type="line"/>
      <point x="38" y="148" type="line"/>
    </contour>
  </outline>
</glyph>
<glyph name="Y" format="1">
  <advance width="1338"/>
  <unicode hex="0059"/>
  <outline>
    <contour>
      <point x="679" y="1151" type="move" name="top"/>
    </contour>
    <contour>
      <point x="373" y="0" type="line"/>
      <point x="970" y="0" type="line"/>
      <point x="970" y="155" type="line"/>
      <point x="795" y="155" type="line"/>
      <point x="795" y="499" type="line"/>
      <point x="1146" y="998" type="line"/>
      <point x="1307" y="998" type="line"/>
      <point x="1307" y="1152" type="line"/>
      <point x="794" y="1152" type="line"/>
      <point x="794" y="998" type="line"/>
      <point x="931" y="998" type="line"/>
      <point x="696" y="645" type="line"/>
      <point x="447" y="998" type="line"/>
      <point x="586" y="998" type="line"/>
      <point x="586" y="1152" type="line"/>
      <point x="24" y="1152" type="line"/>
      <point x="24" y="998" type="line"/>
      <point x="177" y="998" type="line"/>
      <point x="545" y="497" type="line"/>
      <point x="545" y="155" type="line"/>
      <point x="373" y="155" type="line"/>
    </contour>
  </outline>
</glyph>
<glyph name="Z" format="1">
  <advance width="1181"/>
  <unicode hex="005A"/>
  <outline>
    <contour>
      <point x="622" y="1152" type="move" name="top"/>
    </contour>
    <contour>
      <point x="108" y="0" type="line"/>
      <point x="1095" y="0" type="line"/>
      <point x="1095" y="453" type="line"/>
      <point x="920" y="453" type="line"/>
      <point x="920" y="155" type="line"/>
      <point x="410" y="155" type="line"/>
      <point x="1081" y="1003" type="line"/>
      <point x="1081" y="1152" type="line"/>
      <point x="131" y="1152" type="line"/>
      <point x="131" y="724" type="line"/>
      <point x="307" y="724" type="line"/>
      <point x="307" y="998" type="line"/>
      <point x="766" y="998" type="line"/>
      <point x="108" y="166" type="line"/>
    </contour>
  </outline>
</glyph>
<glyph name="asciicircum" format="1">
  <advance width="993"/>
  <unicode hex="005E"/>
  <outline>
    <contour>
      <point x="79" y="531" type="line"/>
      <point x="277" y="531" type="line"/>
      <point x="496" y="1044" type="line"/>
      <point x="715" y="531" type="line"/>
      <point x="913" y="531" type="line"/>
      <point x="589" y="1217" type="line"/>
      <point x="403" y="1217" type="line"/>
    </contour>
  </outline>
</glyph>
<glyph name="grave" format="1">
  <advance width="468"/>
  <unicode hex="0060"/>
  <outline>
    <contour>
      <point x="296" y="804" type="move" name="_top"/>
    </contour>
    <contour>
      <point x="225" y="961" type="line"/>
      <point x="366" y="961" type="line"/>
      <point x="253" y="1291" type="line"/>
      <point x="10" y="1291" type="line"/>
    </contour>
  </outline>
</glyph>
<glyph name="a" format="1">
  <advance width="946"/>
  <unicode hex="0061"/>
  <outline>
    <contour>
      <point x="437" y="804" type="move" name="top"/>
    </contour>
    <contour>
      <point x="729" y="0" type="move" name="ogonek"/>
    </contour>
    <contour>
      <point x="340" y="-22" type="curve" smooth="yes"/>
      <point x="450" y="-22"/>
      <point x="527" y="7"/>
      <point x="597" y="65" type="curve"/>
      <point x="610" y="0" type="line"/>
      <point x="926" y="0" type="line"/>
      <point x="926" y="154" type="line"/>
      <point x="803" y="154" type="line"/>
      <point x="803" y="528" type="line" smooth="yes"/>
      <point x="803" y="731"/>
      <point x="638" y="826"/>
      <point x="435" y="826" type="curve" smooth="yes"/>
      <point x="319" y="826"/>
      <point x="176" y="793"/>
      <point x="80" y="726" type="curve"/>
      <point x="144" y="587" type="line"/>
      <point x="240" y="641"/>
      <point x="354" y="665"/>
      <point x="420" y="665" type="curve" smooth="yes"/>
      <point x="521" y="665"/>
      <point x="581" y="615"/>
      <point x="581" y="515" type="curve" smooth="yes"/>
      <point x="581" y="457" type="line"/>
      <point x="521" y="469"/>
      <point x="464" y="477"/>
      <point x="405" y="477" type="curve" smooth="yes"/>
      <point x="221" y="477"/>
      <point x="56" y="407"/>
      <point x="56" y="222" type="curve" smooth="yes"/>
      <point x="56" y="82"/>
      <point x="171" y="-22"/>
    </contour>
    <contour>
      <point x="383" y="118" type="curve" smooth="yes"/>
      <point x="312" y="118"/>
      <point x="266" y="163"/>
      <point x="266" y="230" type="curve" smooth="yes"/>
      <point x="266" y="330"/>
      <point x="346" y="356"/>
      <point x="425" y="356" type="curve" smooth="yes"/>
      <point x="497" y="356"/>
      <point x="547" y="346"/>
      <point x="581" y="336" type="curve"/>
      <point x="581" y="192" type="line"/>
      <point x="523" y="144"/>
      <point x="451" y="118"/>
    </contour>
  </outline>
</glyph>
<glyph name="c" format="1">
  <advance width="966"/>
  <unicode hex="0063"/>
  <outline>
    <contour>
      <point x="521" y="804" type="move" name="top"/>
    </contour>
    <contour>
      <point x="521" y="0" type="move" name="bot"/>
    </contour>
    <contour>
      <point x="506" y="-20" type="curve" smooth="yes"/>
      <point x="679" y="-20"/>
      <point x="816" y="56"/>
      <point x="898" y="159" type="curve"/>
      <point x="807" y="284" type="line"/>
      <point x="740" y="209"/>
      <point x="657" y="143"/>
      <point x="512" y="148" type="curve" smooth="yes"/>
      <point x="374" y="153"/>
      <point x="280" y="262"/>
      <point x="280" y="414" type="curve" smooth="yes"/>
      <point x="280" y="557"/>
      <point x="375" y="655"/>
      <point x="507" y="660" type="curve" smooth="yes"/>
      <point x="627" y="665"/>
      <point x="713" y="604"/>
      <point x="741" y="482" type="curve"/>
      <point x="898" y="482" type="line"/>
      <point x="898" y="808" type="line"/>
      <point x="724" y="808" type="line"/>
      <point x="723" y="724" type="line"/>
      <point x="693" y="782"/>
      <point x="590" y="826"/>
      <point x="492" y="826" type="curve" smooth="yes"/>
      <point x="230" y="826"/>
      <point x="49" y="653"/>
      <point x="49" y="409" type="curve" smooth="yes"/>
      <point x="49" y="154"/>
      <point x="234" y="-20"/>
    </contour>
  </outline>
</glyph>
<glyph name="e" format="1">
  <advance width="935"/>
  <unicode hex="0065"/>
  <outline>
    <contour>
      <point x="479" y="804" type="move" name="top"/>
    </contour>
    <contour>
      <point x="563" y="0" type="move" name="ogonek"/>
    </contour>
    <contour>
      <point x="484" y="0" type="move" name="bot"/>
    </contour>
    <contour>
      <point x="504" y="-19" type="curve" smooth="yes"/>
      <point x="662" y="-19"/>
      <point x="804" y="46"/>
      <point x="874" y="122" type="curve"/>
      <point x="799" y="248" type="line"/>
      <point x="721" y="187"/>
      <point x="631" y="144"/>
      <point x="520" y="144" type="curve" smooth="yes"/>
      <point x="387" y="144"/>
      <point x="287" y="230"/>
      <point x="278" y="362" type="curve"/>
      <point x="883" y="362" type="line"/>
      <point x="883" y="638"/>
      <point x="722" y="826"/>
      <point x="485" y="826" type="curve" smooth="yes"/>
      <point x="224" y="826"/>
      <point x="45" y="653"/>
      <point x="45" y="399" type="curve" smooth="yes"/>
      <point x="45" y="151"/>
      <point x="231" y="-19"/>
    </contour>
    <contour>
      <point x="281" y="486" type="line"/>
      <point x="298" y="598"/>
      <point x="382" y="675"/>
      <point x="487" y="675" type="curve" smooth="yes"/>
      <point x="587" y="675"/>
      <point x="662" y="598"/>
      <point x="670" y="486" type="curve"/>
    </contour>
  </outline>
</glyph>
<glyph name="f" format="1">
  <advance width="754"/>
  <unicode hex="0066"/>
  <outline>
    <contour>
      <point x="385" y="1148" type="move" name="top"/>
    </contour>
    <contour>
      <point x="70" y="0" type="line"/>
      <point x="679" y="0" type="line"/>
      <point x="679" y="155" type="line"/>
      <point x="462" y="155" type="line"/>
      <point x="462" y="650" type="line"/>
      <point x="667" y="650" type="line"/>
      <point x="667" y="804" type="line"/>
      <point x="462" y="804" type="line"/>
      <point x="462" y="937" type="line" smooth="yes"/>
      <point x="462" y="1051"/>
      <point x="496" y="1087"/>
      <point x="551" y="1087" type="curve" smooth="yes"/>
      <point x="617" y="1087"/>
      <point x="630" y="1040"/>
      <point x="642" y="970" type="curve"/>
      <point x="811" y="1017" type="line"/>
      <point x="798" y="1181"/>
      <point x="685" y="1235"/>
      <point x="535" y="1235" type="curve" smooth="yes"/>
      <point x="312" y="1235"/>
      <point x="238" y="1097"/>
      <point x="238" y="926" type="curve" smooth="yes"/>
      <point x="238" y="804" type="line"/>
      <point x="75" y="804" type="line"/>
      <point x="75" y="650" type="line"/>
      <point x="238" y="650" type="line"/>
      <point x="238" y="155" type="line"/>
      <point x="70" y="155" type="line"/>
    </contour>
  </outline>
</glyph>
<glyph name="h" format="1">
  <advance width="1139"/>
  <unicode hex="0068"/>
  <outline>
    <contour>
      <point x="655" y="1098" type="move" name="top"/>
    </contour>
    <contour>
      <point x="299" y="910" type="move" name="mid"/>
    </contour>
    <component base="lc_xheight_curved_stem" xOffset="-99"/>
    <component base="lc_ascender_stem" xOffset="-97"/>
  </outline>
</glyph>
<glyph name="i" format="1">
  <advance width="623"/>
  <unicode hex="0069"/>
  <outline>
    <contour>
      <point x="309" y="804" type="move" name="top"/>
    </contour>
    <contour>
      <point x="323" y="0" type="move" name="ogonek"/>
    </contour>
    <component base="lc_xheight_stem" xOffset="-45"/>
    <component base="dotaccent" xOffset="141"/>
  </outline>
</glyph>
<glyph name="k" format="1">
  <advance width="1080"/>
  <unicode hex="006B"/>
  <outline>
    <contour>
      <point x="781" y="956" type="move" name="top"/>
    </contour>
    <contour>
      <point x="575" y="0" type="move" name="bot"/>
    </contour>
    <contour>
      <point x="783" y="0" type="line"/>
      <point x="1051" y="0" type="line"/>
      <point x="1051" y="155" type="line"/>
      <point x="901" y="155" type="line"/>
      <point x="648" y="425" type="line"/>
      <point x="926" y="651" type="line"/>
      <point x="1039" y="651" type="line"/>
      <point x="1039" y="804" type="line"/>
      <point x="571" y="804" type="line"/>
      <point x="571" y="651" type="line"/>
      <point x="713" y="651" type="line"/>
      <point x="403" y="413" type="line"/>
    </contour>
    <component base="lc_ascender_stem" xOffset="-97"/>
  </outline>
</glyph>
<glyph name="m" format="1">
  <advance width="1696"/>
  <unicode hex="006D"/>
  <outline>
    <contour>
      <point x="902" y="804" type="move" name="top"/>
    </contour>
    <component base="lc_xheight_curved_stem" xScale="1.012" xOffset="440"/>
    <component base="lc_xheight_curved_stem" xScale="1.012" xOffset="-133"/>
    <component base="lc_xheight_stem" xScale="1.012" xOffset="-90"/>
  </outline>
</glyph>
<glyph name="o" format="1">
  <advance width="989"/>
  <unicode hex="006F"/>
  <outline>
    <contour>
      <point x="489" y="808" type="move" name="top"/>
    </contour>
    <contour>
      <point x="513" y="0" type="move" name="ogonek"/>
    </contour>
    <contour>
      <point x="494" y="145" type="curve" smooth="yes"/>
      <point x="366" y="145"/>
      <point x="276" y="251"/>
      <point x="276" y="405" type="curve" smooth="yes"/>
      <point x="276" y="554"/>
      <point x="366" y="659"/>
      <point x="493" y="659" type="curve" smooth="yes"/>
      <point x="622" y="659"/>
      <point x="711" y="555"/>
      <point x="711" y="406" type="curve" smooth="yes"/>
      <point x="711" y="252"/>
      <point x="622" y="145"/>
    </contour>
    <contour>
      <point x="493" y="-22" type="curve" smooth="yes"/>
      <point x="758" y="-22"/>
      <point x="943" y="154"/>
      <point x="943" y="406" type="curve" smooth="yes"/>
      <point x="943" y="653"/>
      <point x="759" y="826"/>
      <point x="494" y="826" type="curve" smooth="yes"/>
      <point x="230" y="826"/>
      <point x="46" y="653"/>
      <point x="46" y="406" type="curve" smooth="yes"/>
      <point x="46" y="154"/>
      <point x="229" y="-22"/>
    </contour>
  </outline>
</glyph>
<glyph name="q" format="1">
  <advance width="1112"/>
  <unicode hex="0071"/>
  <outline>
    <contour>
      <point x="553" y="-343" type="line"/>
      <point x="1088" y="-343" type="line"/>
      <point x="1088" y="-182" type="line"/>
      <point x="944" y="-182" type="line"/>
      <point x="944" y="650" type="line"/>
      <point x="1076" y="650" type="line"/>
      <point x="1076" y="804" type="line"/>
      <point x="722" y="804" type="line"/>
      <point x="721" y="703" type="line"/>
      <point x="721" y="-182" type="line"/>
      <point x="553" y="-182" type="line"/>
    </contour>
    <component base="lc_bowl_left" xOffset="-118"/>
  </outline>
</glyph>
<glyph name="r" format="1">
  <advance width="813"/>
  <unicode hex="0072"/>
  <outline>
    <contour>
      <point x="448" y="804" type="move" name="top"/>
    </contour>
    <contour>
      <point x="297" y="0" type="move" name="bot"/>
    </contour>
    <contour>
      <point x="411" y="423" type="line"/>
      <point x="411" y="552"/>
      <point x="493" y="620"/>
      <point x="588" y="620" type="curve" smooth="yes"/>
      <point x="638" y="620"/>
      <point x="691" y="603"/>
      <point x="737" y="571" type="curve"/>
      <point x="789" y="770" type="line"/>
      <point x="733" y="794"/>
      <point x="675" y="812"/>
      <point x="620" y="812" type="curve" smooth="yes"/>
      <point x="513" y="812"/>
      <point x="415" y="743"/>
      <point x="365" y="511" type="curve"/>
    </contour>
    <component base="lc_xheight_stem" xOffset="-88"/>
  </outline>
</glyph>
<glyph name="s" format="1">
  <advance width="885"/>
  <unicode hex="0073"/>
  <outline>
    <contour>
      <point x="425" y="804" type="move" name="top"/>
    </contour>
    <contour>
      <point x="490" y="0" type="move" name="bot"/>
    </contour>
    <contour>
      <point x="517" y="-20" type="curve" smooth="yes"/>
      <point x="663" y="-20"/>
      <point x="814" y="46"/>
      <point x="820" y="212" type="curve" smooth="yes"/>
      <point x="826" y="394"/>
      <point x="705" y="442"/>
      <point x="561" y="479" type="curve" smooth="yes"/>
      <point x="463" y="506" type="line" smooth="yes"/>
      <point x="357" y="534"/>
      <point x="326" y="553"/>
      <point x="326" y="601" type="curve" smooth="yes"/>
      <point x="326" y="650"/>
      <point x="382" y="674"/>
      <point x="450" y="674" type="curve" smooth="yes"/>
      <point x="515" y="674"/>
      <point x="595" y="650"/>
      <point x="635" y="609" type="curve"/>
      <point x="652" y="521" type="line"/>
      <point x="798" y="521" type="line"/>
      <point x="798" y="812" type="line"/>
      <point x="633" y="812" type="line"/>
      <point x="633" y="755" type="line"/>
      <point x="582" y="800"/>
      <point x="493" y="826"/>
      <point x="406" y="826" type="curve" smooth="yes"/>
      <point x="241" y="826"/>
      <point x="102" y="743"/>
      <point x="102" y="597" type="curve" smooth="yes"/>
      <point x="102" y="437"/>
      <point x="190" y="382"/>
      <point x="344" y="341" type="curve" smooth="yes"/>
      <point x="464" y="310" type="line" smooth="yes"/>
      <point x="563" y="285"/>
      <point x="606" y="270"/>
      <point x="606" y="207" type="curve" smooth="yes"/>
      <point x="606" y="152"/>
      <point x="552" y="124"/>
      <point x="480" y="124" type="curve" smooth="yes"/>
      <point x="398" y="124"/>
      <point x="297" y="161"/>
      <point x="258" y="226" type="curve"/>
      <point x="249" y="298" type="line"/>
      <point x="107" y="298" type="line"/>
      <point x="107" y="0" type="line"/>
      <point x="265" y="0" type="line"/>
      <point x="265" y="66" type="line"/>
      <point x="318" y="10"/>
      <point x="421" y="-20"/>
    </contour>
  </outline>
</glyph>
<glyph name="t" format="1">
  <advance width="658"/>
  <unicode hex="0074"/>
  <outline>
    <contour>
      <point x="280" y="1094" type="move" name="top"/>
    </contour>
    <contour>
      <point x="487" y="1046" type="move" name="caron.alt"/>
    </contour>
    <contour>
      <point x="398" y="0" type="move" name="bot"/>
    </contour>
    <contour>
      <point x="289" y="468" type="move" name="mid"/>
    </contour>
    <contour>
      <point x="393" y="0" type="curve" smooth="yes"/>
      <point x="595" y="0" type="line"/>
      <point x="595" y="154" type="line"/>
      <point x="448" y="154" type="line" smooth="yes"/>
      <point x="396" y="154"/>
      <point x="383" y="187"/>
      <point x="383" y="258" type="curve" smooth="yes"/>
      <point x="383" y="650" type="line"/>
      <point x="588" y="650" type="line"/>
      <point x="588" y="804" type="line"/>
      <point x="383" y="804" type="line"/>
      <point x="383" y="1152" type="line"/>
      <point x="162" y="1079" type="line"/>
      <point x="162" y="804" type="line"/>
      <point x="36" y="804" type="line"/>
      <point x="36" y="650" type="line"/>
      <point x="161" y="650" type="line"/>
      <point x="161" y="248" type="line" smooth="yes"/>
      <point x="161" y="86"/>
      <point x="233" y="0"/>
    </contour>
  </outline>
</glyph>
<glyph name="u" format="1">
  <advance width="1088"/>
  <unicode hex="0075"/>
  <outline>
    <contour>
      <point x="505" y="804" type="move" name="top"/>
    </contour>
    <contour>
      <point x="860" y="0" type="move" name="ogonek"/>
    </contour>
    <contour>
      <point x="422" y="-20" type="curve" smooth="yes"/>
      <point x="526" y="-20"/>
      <point x="619" y="21"/>
      <point x="705" y="94" type="curve"/>
      <point x="709" y="0" type="line"/>
      <point x="1070" y="0" type="line"/>
      <point x="1070" y="155" type="line"/>
      <point x="927" y="155" type="line"/>
      <point x="927" y="804" type="line"/>
      <point x="568" y="804" type="line"/>
      <point x="568" y="650" type="line"/>
      <point x="705" y="650" type="line"/>
      <point x="705" y="254" type="line"/>
      <point x="645" y="188"/>
      <point x="567" y="151"/>
      <point x="490" y="151" type="curve" smooth="yes"/>
      <point x="405" y="151"/>
      <point x="362" y="202"/>
      <point x="362" y="305" type="curve" smooth="yes"/>
      <point x="362" y="804" type="line"/>
      <point x="15" y="804" type="line"/>
      <point x="15" y="650" type="line"/>
      <point x="139" y="650" type="line"/>
      <point x="139" y="273" type="line" smooth="yes"/>
      <point x="139" y="98"/>
      <point x="226" y="-20"/>
    </contour>
  </outline>
</glyph>
<glyph name="v" format="1">
  <advance width="1082"/>
  <unicode hex="0076"/>
  <outline>
    <contour>
      <point x="444" y="0" type="line"/>
      <point x="638" y="0" type="line"/>
      <point x="943" y="650" type="line"/>
      <point x="1066" y="650" type="line"/>
      <point x="1066" y="804" type="line"/>
      <point x="634" y="804" type="line"/>
      <point x="634" y="650" type="line"/>
      <point x="741" y="650" type="line"/>
      <point x="564" y="228" type="line"/>
      <point x="388" y="650" type="line"/>
      <point x="494" y="650" type="line"/>
      <point x="494" y="804" type="line"/>
      <point x="16" y="804" type="line"/>
      <point x="16" y="650" type="line"/>
      <point x="146" y="650" type="line"/>
    </contour>
  </outline>
</glyph>
<glyph name="w" format="1">
  <advance width="1435"/>
  <unicode hex="0077"/>
  <outline>
    <contour>
      <point x="742" y="804" type="move" name="top"/>
    </contour>
    <contour>
      <point x="352" y="0" type="line"/>
      <point x="556" y="0" type="line"/>
      <point x="726" y="475" type="line"/>
      <point x="900" y="0" type="line"/>
      <point x="1093" y="0" type="line"/>
      <point x="1320" y="650" type="line"/>
      <point x="1418" y="650" type="line"/>
      <point x="1418" y="804" type="line"/>
      <point x="1051" y="804" type="line"/>
      <point x="1051" y="650" type="line"/>
      <point x="1146" y="650" type="line"/>
      <point x="1005" y="208" type="line"/>
      <point x="849" y="650" type="line"/>
      <point x="944" y="650" type="line"/>
      <point x="944" y="804" type="line"/>
      <point x="531" y="804" type="line"/>
      <point x="531" y="650" type="line"/>
      <point x="628" y="650" type="line"/>
      <point x="477" y="211" type="line"/>
      <point x="329" y="650" type="line"/>
      <point x="414" y="650" type="line"/>
      <point x="414" y="804" type="line"/>
      <point x="16" y="804" type="line"/>
      <point x="16" y="650" type="line"/>
      <point x="113" y="650" type="line"/>
    </contour>
  </outline>
</glyph>
<glyph name="x" format="1">
  <advance width="1027"/>
  <unicode hex="0078"/>
  <outline>
    <contour>
      <point x="45" y="0" type="line"/>
      <point x="450" y="0" type="line"/>
      <point x="450" y="155" type="line"/>
      <point x="340" y="155" type="line"/>
      <point x="497" y="316" type="line"/>
      <point x="658" y="155" type="line"/>
      <point x="548" y="155" type="line"/>
      <point x="548" y="0" type="line"/>
      <point x="991" y="0" type="line"/>
      <point x="991" y="155" type="line"/>
      <point x="886" y="155" type="line"/>
      <point x="628" y="423" type="line"/>
      <point x="855" y="650" type="line"/>
      <point x="988" y="650" type="line"/>
      <point x="988" y="804" type="line"/>
      <point x="577" y="804" type="line"/>
      <point x="577" y="650" type="line"/>
      <point x="672" y="650" type="line"/>
      <point x="530" y="501" type="line"/>
      <point x="389" y="650" type="line"/>
      <point x="478" y="650" type="line"/>
      <point x="478" y="804" type="line"/>
      <point x="40" y="804" type="line"/>
      <point x="40" y="650" type="line"/>
      <point x="162" y="650" type="line"/>
      <point x="399" y="406" type="line"/>
      <point x="153" y="155" type="line"/>
      <point x="45" y="155" type="line"/>
    </contour>
  </outline>
</glyph>
<glyph name="y" format="1">
  <advance width="1086"/>
  <unicode hex="0079"/>
  <outline>
    <contour>
      <point x="551" y="804" type="move" name="top"/>
    </contour>
    <contour>
      <point x="196" y="-361" type="line"/>
      <point x="316" y="-361" type="line" smooth="yes"/>
      <point x="545" y="-361"/>
      <point x="581" y="-254"/>
      <point x="669" y="-42" type="curve" smooth="yes"/>
      <point x="958" y="650" type="line"/>
      <point x="1085" y="650" type="line"/>
      <point x="1085" y="804" type="line"/>
      <point x="617" y="804" type="line"/>
      <point x="617" y="650" type="line"/>
      <point x="738" y="650" type="line"/>
      <point x="565" y="206" type="line"/>
      <point x="363" y="650" type="line"/>
      <point x="469" y="650" type="line"/>
      <point x="469" y="804" type="line"/>
      <point x="5" y="804" type="line"/>
      <point x="5" y="650" type="line"/>
      <point x="144" y="650" type="line"/>
      <point x="432" y="52" type="line"/>
      <point x="510" y="52" type="line"/>
      <point x="475" y="-51" type="line" smooth="yes"/>
      <point x="431" y="-179"/>
      <point x="381" y="-189"/>
      <point x="296" y="-189" type="curve" smooth="yes"/>
      <point x="196" y="-189" type="line"/>
    </contour>
  </outline>
</glyph>
<glyph name="z" format="1">
  <advance width="899"/>
  <unicode hex="007A"/>
  <outline>
    <contour>
      <point x="480" y="804" type="move" name="top"/>
    </contour>
    <contour>
      <point x="86" y="0" type="line"/>
      <point x="847" y="0" type="line"/>
      <point x="847" y="310" type="line"/>
      <point x="683" y="310" type="line"/>
      <point x="683" y="143" type="line"/>
      <point x="346" y="143" type="line"/>
      <point x="830" y="653" type="line"/>
      <point x="830" y="804" type="line"/>
      <point x="86" y="804" type="line"/>
      <point x="86" y="506" type="line"/>
      <point x="246" y="506" type="line"/>
      <point x="246" y="660" type="line"/>
      <point x="565" y="660" type="line"/>
      <point x="86" y="146" type="line"/>
    </contour>
  </outline>
</glyph>
<glyph name="braceleft" format="1">
  <advance width="730"/>
  <unicode hex="007B"/>
  <outline>
    <contour>
      <point x="568" y="-204" type="curve" smooth="yes"/>
      <point x="655" y="-204" type="line"/>
      <point x="655" y="-62" type="line"/>
      <point x="472" y="-62"/>
      <point x="468" y="-33"/>
      <point x="468" y="157" type="curve" smooth="yes"/>
      <point x="468" y="407"/>
      <point x="441" y="496"/>
      <point x="295" y="550" type="curve"/>
      <point x="454" y="609"/>
      <point x="469" y="701"/>
      <point x="469" y="1001" type="curve" smooth="yes"/>
      <point x="469" y="1136"/>
      <point x="500" y="1163"/>
      <point x="655" y="1163" type="curve"/>
      <point x="655" y="1305" type="line"/>
      <point x="567" y="1305" type="line" smooth="yes"/>
      <point x="270" y="1305"/>
      <point x="272" y="1134"/>
      <point x="272" y="897" type="curve" smooth="yes"/>
      <point x="272" y="723"/>
      <point x="240" y="624"/>
      <point x="99" y="624" type="curve"/>
      <point x="99" y="477" type="line"/>
      <point x="245" y="477"/>
      <point x="272" y="377"/>
      <point x="272" y="196" type="curve" smooth="yes"/>
      <point x="272" y="-41"/>
      <point x="272" y="-204"/>
    </contour>
  </outline>
</glyph>
<glyph name="braceright" format="1">
  <advance width="730"/>
  <unicode hex="007D"/>
  <outline>
    <contour>
      <point x="122" y="-204" type="line"/>
      <point x="210" y="-204" type="line" smooth="yes"/>
      <point x="506" y="-204"/>
      <point x="506" y="-41"/>
      <point x="506" y="196" type="curve" smooth="yes"/>
      <point x="506" y="377"/>
      <point x="533" y="477"/>
      <point x="678" y="477" type="curve"/>
      <point x="678" y="624" type="line"/>
      <point x="536" y="624"/>
      <point x="506" y="725"/>
      <point x="506" y="901" type="curve" smooth="yes"/>
      <point x="506" y="1137"/>
      <point x="507" y="1305"/>
      <point x="211" y="1305" type="curve" smooth="yes"/>
      <point x="122" y="1305" type="line"/>
      <point x="122" y="1163" type="line"/>
      <point x="278" y="1163"/>
      <point x="309" y="1136"/>
      <point x="309" y="1001" type="curve" smooth="yes"/>
      <point x="309" y="701"/>
      <point x="324" y="609"/>
      <point x="483" y="550" type="curve"/>
      <point x="336" y="495"/>
      <point x="310" y="406"/>
      <point x="310" y="152" type="curve" smooth="yes"/>
      <point x="310" y="-34"/>
      <point x="304" y="-62"/>
      <point x="122" y="-62" type="curve"/>
    </contour>
  </outline>
</glyph>
<glyph name="sterling" format="1">
  <advance width="1074"/>
  <unicode hex="00A3"/>
  <outline>
    <contour>
      <point x="266" y="-20" type="curve" smooth="yes"/>
      <point x="350" y="-20"/>
      <point x="417" y="25"/>
      <point x="467" y="91" type="curve"/>
      <point x="551" y="26"/>
      <point x="644" y="-20"/>
      <point x="741" y="-20" type="curve" smooth="yes"/>
      <point x="944" y="-20"/>
      <point x="998" y="96"/>
      <point x="1002" y="302" type="curve" smooth="yes"/>
      <point x="1002" y="332" type="line"/>
      <point x="861" y="332" type="line"/>
      <point x="854" y="221"/>
      <point x="834" y="167"/>
      <point x="740" y="167" type="curve" smooth="yes"/>
      <point x="682" y="167"/>
      <point x="624" y="202"/>
      <point x="568" y="236" type="curve"/>
      <point x="591" y="293"/>
      <point x="601" y="346"/>
      <point x="601" y="395" type="curve" smooth="yes"/>
      <point x="601" y="453"/>
      <point x="587" y="507"/>
      <point x="561" y="561" type="curve"/>
      <point x="883" y="561" type="line"/>
      <point x="883" y="696" type="line"/>
      <point x="501" y="696" type="line"/>
      <point x="464" y="763"/>
      <point x="431" y="837"/>
      <point x="431" y="907" type="curve" smooth="yes"/>
      <point x="431" y="1009"/>
      <point x="495" y="1069"/>
      <point x="613" y="1069" type="curve" smooth="yes"/>
      <point x="728" y="1069"/>
      <point x="766" y="989"/>
      <point x="765" y="886" type="curve"/>
      <point x="955" y="886" type="line"/>
      <point x="956" y="1091"/>
      <point x="833" y="1229"/>
      <point x="607" y="1229" type="curve" smooth="yes"/>
      <point x="361" y="1229"/>
      <point x="221" y="1102"/>
      <point x="221" y="899" type="curve" smooth="yes"/>
      <point x="221" y="824"/>
      <point x="238" y="758"/>
      <point x="267" y="696" type="curve"/>
      <point x="118" y="696" type="line"/>
      <point x="118" y="561" type="line"/>
      <point x="340" y="561" type="line"/>
      <point x="412" y="482"/>
      <point x="427" y="369"/>
      <point x="427" y="309" type="curve"/>
      <point x="380" y="348"/>
      <point x="319" y="381"/>
      <point x="258" y="381" type="curve" smooth="yes"/>
      <point x="114" y="381"/>
      <point x="36" y="274"/>
      <point x="36" y="171" type="curve" smooth="yes"/>
      <point x="36" y="75"/>
      <point x="107" y="-20"/>
    </contour>
    <contour>
      <point x="259" y="94" type="curve" smooth="yes"/>
      <point x="213" y="94"/>
      <point x="174" y="123"/>
      <point x="174" y="174" type="curve" smooth="yes"/>
      <point x="174" y="223"/>
      <point x="205" y="251"/>
      <point x="250" y="251" type="curve" smooth="yes"/>
      <point x="288" y="251"/>
      <point x="336" y="230"/>
      <point x="382" y="183" type="curve"/>
      <point x="354" y="121"/>
      <point x="303" y="94"/>
    </contour>
  </outline>
</glyph>
<glyph name="currency" format="1">
  <advance width="1055"/>
  <unicode hex="00A4"/>
  <outline>
    <contour>
      <point x="244" y="451" type="line"/>
      <point x="332" y="538" type="line"/>
      <point x="388" y="506"/>
      <point x="450" y="486"/>
      <point x="526" y="486" type="curve" smooth="yes"/>
      <point x="601" y="486"/>
      <point x="664" y="504"/>
      <point x="722" y="539" type="curve"/>
      <point x="812" y="451" type="line"/>
      <point x="881" y="519" type="line"/>
      <point x="796" y="603" type="line"/>
      <point x="842" y="657"/>
      <point x="870" y="724"/>
      <point x="870" y="806" type="curve" smooth="yes"/>
      <point x="870" y="882"/>
      <point x="846" y="950"/>
      <point x="798" y="1005" type="curve"/>
      <point x="881" y="1088" type="line"/>
      <point x="812" y="1157" type="line"/>
      <point x="724" y="1069" type="line"/>
      <point x="670" y="1103"/>
      <point x="603" y="1124"/>
      <point x="526" y="1124" type="curve" smooth="yes"/>
      <point x="449" y="1124"/>
      <point x="384" y="1103"/>
      <point x="330" y="1071" type="curve"/>
      <point x="244" y="1157" type="line"/>
      <point x="175" y="1088" type="line"/>
      <point x="255" y="1007" type="line"/>
      <point x="208" y="950"/>
      <point x="182" y="883"/>
      <point x="182" y="805" type="curve" smooth="yes"/>
      <point x="182" y="724"/>
      <point x="212" y="655"/>
      <point x="257" y="601" type="curve"/>
      <point x="175" y="519" type="line"/>
    </contour>
    <contour>
      <point x="526" y="600" type="curve" smooth="yes"/>
      <point x="400" y="600"/>
      <point x="318" y="697"/>
      <point x="318" y="807" type="curve" smooth="yes"/>
      <point x="318" y="911"/>
      <point x="400" y="1006"/>
      <point x="526" y="1006" type="curve" smooth="yes"/>
      <point x="647" y="1006"/>
      <point x="733" y="912"/>
      <point x="733" y="805" type="curve" smooth="yes"/>
      <point x="733" y="697"/>
      <point x="652" y="600"/>
    </contour>
  </outline>
</glyph>
<glyph name="yen" format="1">
  <advance width="1330"/>
  <unicode hex="00A5"/>
  <outline>
    <contour>
      <point x="285" y="297" type="line"/>
      <point x="1050" y="297" type="line"/>
      <point x="1050" y="414" type="line"/>
      <point x="756" y="414" type="line"/>
      <point x="756" y="503" type="line"/>
      <point x="1050" y="503" type="line"/>
      <point x="1050" y="622" type="line"/>
      <point x="285" y="622" type="line"/>
      <point x="285" y="503" type="line"/>
      <point x="596" y="503" type="line"/>
      <point x="596" y="414" type="line"/>
      <point x="285" y="414" type="line"/>
    </contour>
    <component base="Y"/>
  </outline>
</glyph>
<glyph name="dieresis" format="1">
  <advance width="744"/>
  <unicode hex="00A8"/>
  <outline>
    <contour>
      <point x="370" y="804" type="move" name="_top"/>
    </contour>
    <contour>
      <point x="147" y="925" type="curve" smooth="yes"/>
      <point x="225" y="925"/>
      <point x="275" y="976"/>
      <point x="275" y="1047" type="curve"/>
      <point x="275" y="1121"/>
      <point x="221" y="1168"/>
      <point x="147" y="1168" type="curve" smooth="yes"/>
      <point x="73" y="1168"/>
      <point x="20" y="1119"/>
      <point x="20" y="1047" type="curve" smooth="yes"/>
      <point x="20" y="975"/>
      <point x="73" y="925"/>
    </contour>
    <contour>
      <point x="596" y="925" type="curve" smooth="yes"/>
      <point x="674" y="925"/>
      <point x="724" y="976"/>
      <point x="724" y="1047" type="curve"/>
      <point x="724" y="1121"/>
      <point x="670" y="1168"/>
      <point x="596" y="1168" type="curve" smooth="yes"/>
      <point x="522" y="1168"/>
      <point x="469" y="1119"/>
      <point x="469" y="1047" type="curve" smooth="yes"/>
      <point x="469" y="975"/>
      <point x="522" y="925"/>
    </contour>
  </outline>
</glyph>
<glyph name="ordfeminine" format="1">
  <advance width="825"/>
  <unicode hex="00AA"/>
  <outline>
    <contour>
      <point x="319" y="468" type="curve" smooth="yes"/>
      <point x="411" y="468"/>
      <point x="475" y="493"/>
      <point x="534" y="540" type="curve"/>
      <point x="544" y="486" type="line"/>
      <point x="808" y="486" type="line"/>
      <point x="808" y="612" type="line"/>
      <point x="704" y="612" type="line"/>
      <point x="704" y="926" type="line" smooth="yes"/>
      <point x="704" y="1095"/>
      <point x="568" y="1174"/>
      <point x="399" y="1174" type="curve" smooth="yes"/>
      <point x="302" y="1174"/>
      <point x="183" y="1147"/>
      <point x="103" y="1091" type="curve"/>
      <point x="156" y="976" type="line"/>
      <point x="236" y="1021"/>
      <point x="331" y="1040"/>
      <point x="386" y="1040" type="curve" smooth="yes"/>
      <point x="470" y="1040"/>
      <point x="520" y="998"/>
      <point x="520" y="915" type="curve" smooth="yes"/>
      <point x="520" y="867" type="line"/>
      <point x="470" y="877"/>
      <point x="422" y="883"/>
      <point x="373" y="883" type="curve" smooth="yes"/>
      <point x="220" y="883"/>
      <point x="83" y="826"/>
      <point x="83" y="671" type="curve" smooth="yes"/>
      <point x="83" y="554"/>
      <point x="179" y="468"/>
    </contour>
    <contour>
      <point x="356" y="584" type="curve" smooth="yes"/>
      <point x="296" y="584"/>
      <point x="258" y="622"/>
      <point x="258" y="678" type="curve" smooth="yes"/>
      <point x="258" y="761"/>
      <point x="324" y="783"/>
      <point x="390" y="783" type="curve" smooth="yes"/>
      <point x="450" y="783"/>
      <point x="492" y="774"/>
      <point x="520" y="766" type="curve"/>
      <point x="520" y="646" type="line"/>
      <point x="472" y="606"/>
      <point x="412" y="584"/>
    </contour>
  </outline>
</glyph>
<glyph name="guillemotleft" format="1">
  <advance width="1028"/>
  <unicode hex="00AB"/>
  <outline>
    <contour>
      <point x="363" y="135" type="line"/>
      <point x="528" y="135" type="line"/>
      <point x="315" y="554" type="line"/>
      <point x="528" y="975" type="line"/>
      <point x="363" y="975" type="line"/>
      <point x="53" y="553" type="line"/>
    </contour>
    <contour>
      <point x="816" y="135" type="line"/>
      <point x="981" y="135" type="line"/>
      <point x="768" y="554" type="line"/>
      <point x="981" y="975" type="line"/>
      <point x="816" y="975" type="line"/>
      <point x="506" y="553" type="line"/>
    </contour>
  </outline>
</glyph>
<glyph name="logicalnot" format="1">
  <advance width="1127"/>
  <unicode hex="00AC"/>
  <outline>
    <contour>
      <point x="824" y="319" type="line"/>
      <point x="955" y="319" type="line"/>
      <point x="955" y="851" type="line"/>
      <point x="44" y="851" type="line"/>
      <point x="44" y="697" type="line"/>
      <point x="824" y="697" type="line"/>
    </contour>
  </outline>
</glyph>
<glyph name="macron" format="1">
  <advance width="459"/>
  <unicode hex="00AF"/>
  <outline>
    <contour>
      <point x="241" y="804" type="move" name="_top"/>
    </contour>
    <contour>
      <point x="227" y="1024" type="move" name="_mid"/>
    </contour>
    <contour>
      <point x="-6" y="957" type="line"/>
      <point x="465" y="957" type="line"/>
      <point x="465" y="1081" type="line"/>
      <point x="-6" y="1081" type="line"/>
    </contour>
  </outline>
</glyph>
<glyph name="degree" format="1">
  <advance width="673"/>
  <unicode hex="00B0"/>
  <outline>
    <contour>
      <point x="337" y="785" type="curve" smooth="yes"/>
      <point x="220" y="785"/>
      <point x="165" y="873"/>
      <point x="165" y="957" type="curve" smooth="yes"/>
      <point x="166" y="1041"/>
      <point x="221" y="1129"/>
      <point x="335" y="1129" type="curve" smooth="yes"/>
      <point x="454" y="1129"/>
      <point x="508" y="1035"/>
      <point x="508" y="958" type="curve" smooth="yes"/>
      <point x="508" y="871"/>
      <point x="450" y="785"/>
    </contour>
    <contour>
      <point x="336" y="696" type="curve" smooth="yes"/>
      <point x="515" y="697"/>
      <point x="602" y="829"/>
      <point x="602" y="956" type="curve" smooth="yes"/>
      <point x="602" y="1083"/>
      <point x="513" y="1215"/>
      <point x="336" y="1215" type="curve" smooth="yes"/>
      <point x="160" y="1215"/>
      <point x="71" y="1083"/>
      <point x="71" y="956" type="curve" smooth="yes"/>
      <point x="71" y="828"/>
      <point x="159" y="696"/>
    </contour>
  </outline>
</glyph>
<glyph name="plusminus" format="1">
  <advance width="988"/>
  <unicode hex="00B1"/>
  <outline>
    <contour>
      <point x="413" y="286" type="line"/>
      <point x="574" y="286" type="line"/>
      <point x="574" y="627" type="line"/>
      <point x="919" y="627" type="line"/>
      <point x="919" y="781" type="line"/>
      <point x="574" y="781" type="line"/>
      <point x="574" y="1125" type="line"/>
      <point x="413" y="1125" type="line"/>
      <point x="413" y="781" type="line"/>
      <point x="70" y="781" type="line"/>
      <point x="70" y="627" type="line"/>
      <point x="413" y="627" type="line"/>
    </contour>
    <contour>
      <point x="70" y="0" type="line"/>
      <point x="919" y="0" type="line"/>
      <point x="919" y="154" type="line"/>
      <point x="70" y="154" type="line"/>
    </contour>
  </outline>
</glyph>
<glyph name="acute" format="1">
  <advance width="606"/>
  <unicode hex="00B4"/>
  <outline>
    <contour>
      <point x="243" y="804" type="move" name="_top"/>
    </contour>
    <contour>
      <point x="179" y="961" type="line"/>
      <point x="320" y="961" type="line"/>
      <point x="535" y="1291" type="line"/>
      <point x="292" y="1291" type="line"/>
    </contour>
  </outline>
</glyph>
<glyph name="paragraph" format="1">
  <advance width="1164"/>
  <unicode hex="00B6"/>
  <outline>
    <contour>
      <point x="489" y="0" type="line"/>
      <point x="1109" y="0" type="line"/>
      <point x="1109" y="156" type="line"/>
      <point x="953" y="156" type="line"/>
      <point x="953" y="1000" type="line"/>
      <point x="1099" y="1000" type="line"/>
      <point x="1099" y="1152" type="line"/>
      <point x="524" y="1152" type="line" smooth="yes"/>
      <point x="208" y="1152"/>
      <point x="112" y="973"/>
      <point x="112" y="791" type="curve" smooth="yes"/>
      <point x="112" y="607"/>
      <point x="240" y="431"/>
      <point x="479" y="434" type="curve" smooth="yes"/>
      <point x="737" y="434" type="line"/>
      <point x="737" y="156" type="line"/>
      <point x="489" y="156" type="line"/>
    </contour>
    <contour>
      <point x="536" y="587" type="line"/>
      <point x="536" y="1000" type="line"/>
      <point x="737" y="1000" type="line"/>
      <point x="737" y="588" type="line"/>
    </contour>
  </outline>
</glyph>
<glyph name="periodcentered" format="1">
  <advance width="664"/>
  <unicode hex="00B7"/>
  <outline>
    <contour>
      <point x="275" y="553" type="move" name="_mid"/>
    </contour>
    <contour>
      <point x="223" y="442" type="line"/>
      <point x="456" y="442" type="line"/>
      <point x="456" y="659" type="line"/>
      <point x="223" y="659" type="line"/>
    </contour>
  </outline>
</glyph>
<glyph name="cedilla" format="1">
  <advance width="485"/>
  <unicode hex="00B8"/>
  <outline>
    <contour>
      <point x="282" y="0" type="move" name="_bot"/>
    </contour>
    <contour>
      <point x="281" y="-395" type="curve" smooth="yes"/>
      <point x="376" y="-395"/>
      <point x="451" y="-356"/>
      <point x="451" y="-257" type="curve" smooth="yes"/>
      <point x="451" y="-193"/>
      <point x="402" y="-131"/>
      <point x="297" y="-117" type="curve"/>
      <point x="325" y="5" type="line"/>
      <point x="234" y="5" type="line"/>
      <point x="168" y="-169" type="line"/>
      <point x="245" y="-175"/>
      <point x="284" y="-199"/>
      <point x="284" y="-239" type="curve" smooth="yes"/>
      <point x="284" y="-281"/>
      <point x="253" y="-297"/>
      <point x="207" y="-297" type="curve" smooth="yes"/>
      <point x="169" y="-297"/>
      <point x="122" y="-286"/>
      <point x="76" y="-271" type="curve"/>
      <point x="76" y="-346" type="line"/>
      <point x="141" y="-376"/>
      <point x="215" y="-395"/>
    </contour>
  </outline>
</glyph>
<glyph name="ordmasculine" format="1">
  <advance width="966"/>
  <unicode hex="00BA"/>
  <outline>
    <contour>
      <point x="484" y="607" type="curve" smooth="yes"/>
      <point x="378" y="607"/>
      <point x="303" y="695"/>
      <point x="303" y="824" type="curve" smooth="yes"/>
      <point x="303" y="948"/>
      <point x="378" y="1035"/>
      <point x="484" y="1035" type="curve" smooth="yes"/>
      <point x="591" y="1035"/>
      <point x="666" y="949"/>
      <point x="666" y="825" type="curve" smooth="yes"/>
      <point x="666" y="696"/>
      <point x="591" y="607"/>
    </contour>
    <contour>
      <point x="484" y="468" type="curve" smooth="yes"/>
      <point x="705" y="468"/>
      <point x="859" y="614"/>
      <point x="859" y="825" type="curve" smooth="yes"/>
      <point x="859" y="1031"/>
      <point x="706" y="1174"/>
      <point x="485" y="1174" type="curve" smooth="yes"/>
      <point x="265" y="1174"/>
      <point x="111" y="1031"/>
      <point x="111" y="825" type="curve" smooth="yes"/>
      <point x="111" y="614"/>
      <point x="264" y="468"/>
    </contour>
  </outline>
</glyph>
<glyph name="guillemotright" format="1">
  <advance width="1015"/>
  <unicode hex="00BB"/>
  <outline>
    <contour>
      <point x="53" y="135" type="line"/>
      <point x="219" y="135" type="line"/>
      <point x="528" y="555" type="line"/>
      <point x="219" y="975" type="line"/>
      <point x="53" y="975" type="line"/>
      <point x="267" y="555" type="line"/>
    </contour>
    <contour>
      <point x="506" y="135" type="line"/>
      <point x="672" y="135" type="line"/>
      <point x="981" y="555" type="line"/>
      <point x="672" y="975" type="line"/>
      <point x="506" y="975" type="line"/>
      <point x="720" y="555" type="line"/>
    </contour>
  </outline>
</glyph>
<glyph name="onequarter" format="1">
  <advance width="2126"/>
  <unicode hex="00BC"/>
  <outline>
    <contour>
      <point x="1521" y="0" type="line"/>
      <point x="1890" y="0" type="line"/>
      <point x="1890" y="110" type="line"/>
      <point x="1789" y="110" type="line"/>
      <point x="1789" y="245" type="line"/>
      <point x="1912" y="245" type="line"/>
      <point x="1912" y="347" type="line"/>
      <point x="1789" y="347" type="line"/>
      <point x="1789" y="818" type="line"/>
      <point x="1638" y="818" type="line"/>
      <point x="1288" y="360" type="line"/>
      <point x="1303" y="245" type="line"/>
      <point x="1639" y="245" type="line"/>
      <point x="1639" y="110" type="line"/>
      <point x="1521" y="110" type="line"/>
    </contour>
    <contour>
      <point x="219" y="334" type="line"/>
      <point x="633" y="334" type="line"/>
      <point x="633" y="444" type="line"/>
      <point x="512" y="444" type="line"/>
      <point x="512" y="1152" type="line"/>
      <point x="212" y="1115" type="line"/>
      <point x="212" y="1006" type="line"/>
      <point x="348" y="1023" type="line"/>
      <point x="348" y="444" type="line"/>
      <point x="219" y="444" type="line"/>
    </contour>
    <contour>
      <point x="589" y="-57" type="line"/>
      <point x="726" y="-57" type="line"/>
      <point x="1541" y="1244" type="line"/>
      <point x="1408" y="1244" type="line"/>
    </contour>
    <contour>
      <point x="1413" y="347" type="line"/>
      <point x="1639" y="649" type="line"/>
      <point x="1639" y="347" type="line"/>
    </contour>
  </outline>
</glyph>
<glyph name="onehalf" format="1">
  <advance width="2167"/>
  <unicode hex="00BD"/>
  <outline>
    <contour>
      <point x="1396" y="0" type="line"/>
      <point x="1995" y="0" type="line"/>
      <point x="1993" y="260" type="line"/>
      <point x="1872" y="260" type="line"/>
      <point x="1872" y="107" type="line"/>
      <point x="1584" y="107" type="line"/>
      <point x="1780" y="291" type="line" smooth="yes"/>
      <point x="1876" y="381"/>
      <point x="1976" y="477"/>
      <point x="1976" y="589" type="curve" smooth="yes"/>
      <point x="1976" y="748"/>
      <point x="1856" y="834"/>
      <point x="1687" y="834" type="curve" smooth="yes"/>
      <point x="1487" y="834"/>
      <point x="1380" y="721"/>
      <point x="1380" y="579" type="curve" smooth="yes"/>
      <point x="1380" y="544"/>
      <point x="1386" y="508"/>
      <point x="1399" y="473" type="curve"/>
      <point x="1539" y="473" type="line"/>
      <point x="1532" y="503"/>
      <point x="1527" y="532"/>
      <point x="1527" y="558" type="curve" smooth="yes"/>
      <point x="1527" y="658"/>
      <point x="1584" y="717"/>
      <point x="1687" y="717" type="curve" smooth="yes"/>
      <point x="1782" y="717"/>
      <point x="1816" y="659"/>
      <point x="1819" y="587" type="curve" smooth="yes"/>
      <point x="1822" y="525"/>
      <point x="1746" y="449"/>
      <point x="1675" y="380" type="curve" smooth="yes"/>
      <point x="1396" y="113" type="line"/>
    </contour>
    <contour>
      <point x="219" y="334" type="line"/>
      <point x="633" y="334" type="line"/>
      <point x="633" y="444" type="line"/>
      <point x="512" y="444" type="line"/>
      <point x="512" y="1152" type="line"/>
      <point x="212" y="1115" type="line"/>
      <point x="212" y="1006" type="line"/>
      <point x="348" y="1023" type="line"/>
      <point x="348" y="444" type="line"/>
      <point x="219" y="444" type="line"/>
    </contour>
    <contour>
      <point x="590" y="-57" type="line"/>
      <point x="727" y="-57" type="line"/>
      <point x="1543" y="1244" type="line"/>
      <point x="1409" y="1244" type="line"/>
    </contour>
  </outline>
</glyph>
<glyph name="threequarters" format="1">
  <advance width="2272"/>
  <unicode hex="00BE"/>
  <outline>
    <contour>
      <point x="501" y="324" type="curve" smooth="yes"/>
      <point x="705" y="324"/>
      <point x="822" y="430"/>
      <point x="822" y="584" type="curve" smooth="yes"/>
      <point x="822" y="682"/>
      <point x="757" y="748"/>
      <point x="646" y="775" type="curve"/>
      <point x="734" y="800"/>
      <point x="788" y="865"/>
      <point x="788" y="953" type="curve" smooth="yes"/>
      <point x="788" y="1075"/>
      <point x="683" y="1174"/>
      <point x="494" y="1174" type="curve" smooth="yes"/>
      <point x="362" y="1174"/>
      <point x="231" y="1109"/>
      <point x="187" y="994" type="curve"/>
      <point x="315" y="938" type="line"/>
      <point x="338" y="1005"/>
      <point x="401" y="1050"/>
      <point x="489" y="1050" type="curve" smooth="yes"/>
      <point x="572" y="1050"/>
      <point x="629" y="1005"/>
      <point x="629" y="947" type="curve" smooth="yes"/>
      <point x="629" y="870"/>
      <point x="583" y="822"/>
      <point x="429" y="822" type="curve"/>
      <point x="429" y="709" type="line"/>
      <point x="589" y="709"/>
      <point x="654" y="672"/>
      <point x="658" y="585" type="curve" smooth="yes"/>
      <point x="662" y="499"/>
      <point x="597" y="447"/>
      <point x="502" y="447" type="curve" smooth="yes"/>
      <point x="413" y="447"/>
      <point x="345" y="490"/>
      <point x="313" y="578" type="curve"/>
      <point x="189" y="512" type="line"/>
      <point x="224" y="397"/>
      <point x="347" y="324"/>
    </contour>
    <contour>
      <point x="1606" y="0" type="line"/>
      <point x="1975" y="0" type="line"/>
      <point x="1975" y="110" type="line"/>
      <point x="1873" y="110" type="line"/>
      <point x="1873" y="245" type="line"/>
      <point x="1997" y="245" type="line"/>
      <point x="1997" y="347" type="line"/>
      <point x="1873" y="347" type="line"/>
      <point x="1873" y="818" type="line"/>
      <point x="1723" y="818" type="line"/>
      <point x="1372" y="360" type="line"/>
      <point x="1388" y="245" type="line"/>
      <point x="1723" y="245" type="line"/>
      <point x="1723" y="110" type="line"/>
      <point x="1606" y="110" type="line"/>
    </contour>
    <contour>
      <point x="696" y="-57" type="line"/>
      <point x="833" y="-57" type="line"/>
      <point x="1649" y="1244" type="line"/>
      <point x="1515" y="1244" type="line"/>
    </contour>
    <contour>
      <point x="1497" y="347" type="line"/>
      <point x="1723" y="649" type="line"/>
      <point x="1723" y="347" type="line"/>
    </contour>
  </outline>
</glyph>
<glyph name="AE" format="1">
  <advance width="1898"/>
  <unicode hex="00C6"/>
  <outline>
    <contour>
      <point x="1178" y="1152" type="move" name="top"/>
    </contour>
    <contour>
      <point x="-3" y="0" type="line"/>
      <point x="527" y="0" type="line"/>
      <point x="527" y="155" type="line"/>
      <point x="399" y="155" type="line"/>
      <point x="549" y="413" type="line"/>
      <point x="920" y="413" type="line"/>
      <point x="920" y="155" type="line"/>
      <point x="769" y="155" type="line"/>
      <point x="769" y="0" type="line"/>
      <point x="1822" y="0" type="line"/>
      <point x="1822" y="361" type="line"/>
      <point x="1650" y="361" type="line"/>
      <point x="1650" y="155" type="line"/>
      <point x="1170" y="155" type="line"/>
      <point x="1170" y="524" type="line"/>
      <point x="1465" y="524" type="line"/>
      <point x="1465" y="405" type="line"/>
      <point x="1573" y="405" type="line"/>
      <point x="1573" y="789" type="line"/>
      <point x="1465" y="789" type="line"/>
      <point x="1465" y="665" type="line"/>
      <point x="1169" y="665" type="line"/>
      <point x="1169" y="998" type="line"/>
      <point x="1648" y="998" type="line"/>
      <point x="1648" y="798" type="line"/>
      <point x="1820" y="798" type="line"/>
      <point x="1820" y="1152" type="line"/>
      <point x="560" y="1152" type="line"/>
      <point x="560" y="998" type="line"/>
      <point x="678" y="998" type="line"/>
      <point x="147" y="155" type="line"/>
      <point x="-3" y="155" type="line"/>
    </contour>
    <contour>
      <point x="615" y="544" type="line"/>
      <point x="896" y="998" type="line"/>
      <point x="920" y="998" type="line"/>
      <point x="920" y="544" type="line"/>
    </contour>
  </outline>
</glyph>
<glyph name="multiply" format="1">
  <advance width="1012"/>
  <unicode hex="00D7"/>
  <outline>
    <contour>
      <point x="228" y="127" type="line"/>
      <point x="504" y="396" type="line"/>
      <point x="776" y="131" type="line"/>
      <point x="880" y="236" type="line"/>
      <point x="610" y="501" type="line"/>
      <point x="885" y="772" type="line"/>
      <point x="785" y="874" type="line"/>
      <point x="507" y="604" type="line"/>
      <point x="236" y="870" type="line"/>
      <point x="131" y="765" type="line"/>
      <point x="402" y="498" type="line"/>
      <point x="126" y="228" type="line"/>
    </contour>
  </outline>
</glyph>
<glyph name="Oslash" format="1">
  <advance width="1477"/>
  <unicode hex="00D8"/>
  <outline>
    <contour>
      <point x="318" y="-83" type="line"/>
      <point x="1288" y="1153" type="line"/>
      <point x="1180" y="1229" type="line"/>
      <point x="210" y="-7" type="line"/>
    </contour>
    <component base="O"/>
  </outline>
</glyph>
<glyph name="Thorn" format="1">
  <advance width="1133"/>
  <unicode hex="00DE"/>
  <outline>
    <contour>
      <point x="538" y="323" type="line"/>
      <point x="660" y="323" type="line" smooth="yes"/>
      <point x="976" y="323"/>
      <point x="1118" y="421"/>
      <point x="1118" y="612" type="curve" smooth="yes"/>
      <point x="1118" y="801"/>
      <point x="966" y="900"/>
      <point x="685" y="900" type="curve" smooth="yes"/>
      <point x="348" y="900" type="line"/>
      <point x="348" y="761" type="line"/>
      <point x="683" y="761" type="line" smooth="yes"/>
      <point x="798" y="761"/>
      <point x="873" y="708"/>
      <point x="873" y="612" type="curve" smooth="yes"/>
      <point x="873" y="506"/>
      <point x="804" y="453"/>
      <point x="672" y="453" type="curve" smooth="yes"/>
      <point x="538" y="453" type="line"/>
    </contour>
    <component base="uc_main_stem" xOffset="-88"/>
  </outline>
</glyph>
<glyph name="germandbls" format="1">
  <advance width="1172"/>
  <unicode hex="00DF"/>
  <outline>
    <contour>
      <point x="44" y="0" type="line"/>
      <point x="537" y="0" type="line"/>
      <point x="537" y="155" type="line"/>
      <point x="426" y="155" type="line"/>
      <point x="426" y="849" type="line" smooth="yes"/>
      <point x="426" y="998"/>
      <point x="509" y="1092"/>
      <point x="628" y="1092" type="curve" smooth="yes"/>
      <point x="725" y="1092"/>
      <point x="791" y="1035"/>
      <point x="791" y="940" type="curve" smooth="yes"/>
      <point x="791" y="822"/>
      <point x="711" y="746"/>
      <point x="577" y="746" type="curve"/>
      <point x="577" y="598" type="line"/>
      <point x="762" y="596"/>
      <point x="872" y="511"/>
      <point x="875" y="380" type="curve" smooth="yes"/>
      <point x="877" y="248"/>
      <point x="783" y="155"/>
      <point x="628" y="155" type="curve"/>
      <point x="628" y="0" type="line"/>
      <point x="948" y="0"/>
      <point x="1122" y="153"/>
      <point x="1119" y="386" type="curve" smooth="yes"/>
      <point x="1117" y="543"/>
      <point x="997" y="660"/>
      <point x="820" y="697" type="curve"/>
      <point x="937" y="739"/>
      <point x="1008" y="842"/>
      <point x="1008" y="955" type="curve" smooth="yes"/>
      <point x="1008" y="1144"/>
      <point x="864" y="1264"/>
      <point x="627" y="1264" type="curve" smooth="yes"/>
      <point x="351" y="1264"/>
      <point x="190" y="1101"/>
      <point x="190" y="841" type="curve" smooth="yes"/>
      <point x="190" y="155" type="line"/>
      <point x="44" y="155" type="line"/>
    </contour>
  </outline>
</glyph>
<glyph name="ae" format="1">
  <advance width="1466"/>
  <unicode hex="00E6"/>
  <outline>
    <contour>
      <point x="735" y="804" type="move" name="top"/>
    </contour>
    <contour>
      <point x="372" y="-22" type="curve" smooth="yes"/>
      <point x="478" y="-22"/>
      <point x="575" y="2"/>
      <point x="713" y="90" type="curve"/>
      <point x="793" y="21"/>
      <point x="905" y="-19"/>
      <point x="1038" y="-19" type="curve" smooth="yes"/>
      <point x="1199" y="-19"/>
      <point x="1336" y="44"/>
      <point x="1402" y="122" type="curve"/>
      <point x="1327" y="248" type="line"/>
      <point x="1232" y="173"/>
      <point x="1142" y="144"/>
      <point x="1054" y="144" type="curve" smooth="yes"/>
      <point x="915" y="144"/>
      <point x="821" y="230"/>
      <point x="812" y="362" type="curve"/>
      <point x="1411" y="362" type="line"/>
      <point x="1411" y="638"/>
      <point x="1267" y="826"/>
      <point x="1019" y="826" type="curve" smooth="yes"/>
      <point x="897" y="826"/>
      <point x="777" y="782"/>
      <point x="718" y="706" type="curve"/>
      <point x="668" y="782"/>
      <point x="549" y="826"/>
      <point x="431" y="826" type="curve" smooth="yes"/>
      <point x="309" y="826"/>
      <point x="166" y="791"/>
      <point x="70" y="723" type="curve"/>
      <point x="133" y="587" type="line"/>
      <point x="230" y="641"/>
      <point x="344" y="665"/>
      <point x="416" y="665" type="curve" smooth="yes"/>
      <point x="517" y="665"/>
      <point x="581" y="615"/>
      <point x="581" y="515" type="curve" smooth="yes"/>
      <point x="581" y="455" type="line"/>
      <point x="521" y="467"/>
      <point x="460" y="474"/>
      <point x="401" y="474" type="curve" smooth="yes"/>
      <point x="220" y="474"/>
      <point x="56" y="407"/>
      <point x="56" y="222" type="curve" smooth="yes"/>
      <point x="56" y="18"/>
      <point x="267" y="-22"/>
    </contour>
    <contour>
      <point x="405" y="112" type="curve" smooth="yes"/>
      <point x="343" y="112"/>
      <point x="263" y="132"/>
      <point x="263" y="226" type="curve" smooth="yes"/>
      <point x="263" y="326"/>
      <point x="336" y="353"/>
      <point x="419" y="353" type="curve" smooth="yes"/>
      <point x="470" y="353"/>
      <point x="539" y="344"/>
      <point x="583" y="339" type="curve"/>
      <point x="589" y="288"/>
      <point x="605" y="239"/>
      <point x="627" y="197" type="curve"/>
      <point x="575" y="156"/>
      <point x="506" y="112"/>
    </contour>
    <contour>
      <point x="815" y="486" type="line"/>
      <point x="833" y="598"/>
      <point x="908" y="675"/>
      <point x="1021" y="675" type="curve" smooth="yes"/>
      <point x="1131" y="675"/>
      <point x="1190" y="598"/>
      <point x="1198" y="486" type="curve"/>
    </contour>
  </outline>
</glyph>
<glyph name="eth" format="1">
  <advance width="1031"/>
  <unicode hex="00F0"/>
  <outline>
    <contour>
      <point x="533" y="-20" type="curve" smooth="yes"/>
      <point x="796" y="-20"/>
      <point x="968" y="174"/>
      <point x="968" y="412" type="curve"/>
      <point x="968" y="932"/>
      <point x="613" y="1173"/>
      <point x="314" y="1394" type="curve"/>
      <point x="213" y="1265" type="line"/>
      <point x="436" y="1106"/>
      <point x="640" y="925"/>
      <point x="728" y="729" type="curve"/>
      <point x="727" y="728"/>
      <point x="651" y="785"/>
      <point x="503" y="785" type="curve" smooth="yes"/>
      <point x="291" y="785"/>
      <point x="116" y="619"/>
      <point x="116" y="408" type="curve" smooth="yes"/>
      <point x="116" y="167"/>
      <point x="262" y="-20"/>
    </contour>
    <contour>
      <point x="541" y="149" type="curve" smooth="yes"/>
      <point x="410" y="149"/>
      <point x="325" y="260"/>
      <point x="325" y="405" type="curve" smooth="yes"/>
      <point x="325" y="542"/>
      <point x="402" y="634"/>
      <point x="532" y="634" type="curve" smooth="yes"/>
      <point x="661" y="634"/>
      <point x="764" y="550"/>
      <point x="764" y="402" type="curve" smooth="yes"/>
      <point x="764" y="267"/>
      <point x="695" y="149"/>
    </contour>
    <contour>
      <point x="293" y="878" type="line"/>
      <point x="917" y="1166" type="line"/>
      <point x="854" y="1295" type="line"/>
      <point x="230" y="1009" type="line"/>
    </contour>
  </outline>
</glyph>
<glyph name="divide" format="1">
  <advance width="895"/>
  <unicode hex="00F7"/>
  <outline>
    <contour>
      <point x="354" y="138" type="line"/>
      <point x="542" y="138" type="line"/>
      <point x="542" y="323" type="line"/>
      <point x="354" y="323" type="line"/>
    </contour>
    <contour>
      <point x="37" y="481" type="line"/>
      <point x="858" y="481" type="line"/>
      <point x="858" y="614" type="line"/>
      <point x="37" y="614" type="line"/>
    </contour>
    <contour>
      <point x="354" y="768" type="line"/>
      <point x="542" y="768" type="line"/>
      <point x="542" y="953" type="line"/>
      <point x="354" y="953" type="line"/>
    </contour>
  </outline>
</glyph>
<glyph name="thorn" format="1">
  <advance width="1148"/>
  <unicode hex="00FE"/>
  <outline>
    <contour>
      <point x="35" y="-345" type="line"/>
      <point x="402" y="-345" type="line"/>
      <point x="402" y="1151" type="line"/>
      <point x="28" y="1151" type="line"/>
      <point x="28" y="998" type="line"/>
      <point x="177" y="998" type="line"/>
      <point x="177" y="-190" type="line"/>
      <point x="35" y="-190" type="line"/>
    </contour>
    <component base="lc_bowl_right" xOffset="12" yOffset="21"/>
  </outline>
</glyph>
<glyph name="kgreenlandic" format="1">
  <advance width="1168"/>
  <unicode hex="0138"/>
  <outline>
    <contour>
      <point x="92" y="0" type="line"/>
      <point x="576" y="0" type="line"/>
      <point x="576" y="155" type="line"/>
      <point x="463" y="155" type="line"/>
      <point x="463" y="384" type="line"/>
      <point x="768" y="155" type="line"/>
      <point x="692" y="155" type="line"/>
      <point x="692" y="0" type="line"/>
      <point x="1151" y="0" type="line"/>
      <point x="1151" y="155" type="line"/>
      <point x="1011" y="155" type="line"/>
      <point x="691" y="397" type="line"/>
      <point x="996" y="651" type="line"/>
      <point x="1136" y="651" type="line"/>
      <point x="1136" y="804" type="line"/>
      <point x="628" y="804" type="line"/>
      <point x="628" y="651" type="line"/>
      <point x="758" y="651" type="line"/>
      <point x="463" y="403" type="line"/>
      <point x="463" y="804" type="line"/>
      <point x="91" y="804" type="line"/>
      <point x="91" y="651" type="line"/>
      <point x="242" y="651" type="line"/>
      <point x="242" y="155" type="line"/>
      <point x="92" y="155" type="line"/>
    </contour>
  </outline>
</glyph>
<glyph name="Eng" format="1">
  <advance width="1494"/>
  <unicode hex="014A"/>
  <outline>
    <contour>
      <point x="806" y="-384" type="line"/>
      <point x="1052" y="-384"/>
      <point x="1274" y="-320"/>
      <point x="1274" y="-25" type="curve" smooth="yes"/>
      <point x="1274" y="215" type="line"/>
      <point x="1094" y="215" type="line"/>
      <point x="1095" y="-30" type="line" smooth="yes"/>
      <point x="1096" y="-191"/>
      <point x="975" y="-234"/>
      <point x="806" y="-234" type="curve"/>
    </contour>
    <component base="N"/>
  </outline>
</glyph>
<glyph name="eng" format="1">
  <advance width="1112"/>
  <unicode hex="014B"/>
  <outline>
    <contour>
      <point x="505" y="-314" type="line"/>
      <point x="752" y="-314"/>
      <point x="966" y="-228"/>
      <point x="966" y="67" type="curve" smooth="yes"/>
      <point x="966" y="534" type="line" smooth="yes"/>
      <point x="966" y="728"/>
      <point x="838" y="826"/>
      <point x="691" y="826" type="curve" smooth="yes"/>
      <point x="543" y="826"/>
      <point x="416" y="738"/>
      <point x="297" y="618" type="curve"/>
      <point x="297" y="481" type="line"/>
      <point x="373" y="576"/>
      <point x="495" y="655"/>
      <point x="615" y="655" type="curve" smooth="yes"/>
      <point x="694" y="655"/>
      <point x="745" y="597"/>
      <point x="745" y="485" type="curve" smooth="yes"/>
      <point x="745" y="62" type="line" smooth="yes"/>
      <point x="745" y="-99"/>
      <point x="675" y="-154"/>
      <point x="506" y="-154" type="curve"/>
    </contour>
    <component base="lc_xheight_stem" xOffset="-89"/>
  </outline>
</glyph>
<glyph name="OE" format="1">
  <advance width="2117"/>
  <unicode hex="0152"/>
  <outline>
    <contour>
      <point x="864" y="0" type="curve" smooth="yes"/>
      <point x="2015" y="0" type="line"/>
      <point x="2015" y="348" type="line"/>
      <point x="1826" y="348" type="line"/>
      <point x="1826" y="147" type="line"/>
      <point x="1365" y="147" type="line"/>
      <point x="1365" y="526" type="line"/>
      <point x="1652" y="526" type="line"/>
      <point x="1652" y="421" type="line"/>
      <point x="1755" y="421" type="line"/>
      <point x="1755" y="786" type="line"/>
      <point x="1653" y="786" type="line"/>
      <point x="1653" y="686" type="line"/>
      <point x="1366" y="686" type="line"/>
      <point x="1366" y="1004" type="line"/>
      <point x="1825" y="1004" type="line"/>
      <point x="1825" y="809" type="line"/>
      <point x="2010" y="809" type="line"/>
      <point x="2010" y="1152" type="line"/>
      <point x="863" y="1152" type="line" smooth="yes"/>
      <point x="439" y="1153"/>
      <point x="183" y="945"/>
      <point x="182" y="587" type="curve" smooth="yes"/>
      <point x="183" y="216"/>
      <point x="440" y="0"/>
    </contour>
    <contour>
      <point x="863" y="147" type="line"/>
      <point x="611" y="146"/>
      <point x="455" y="312"/>
      <point x="454" y="585" type="curve" smooth="yes"/>
      <point x="455" y="846"/>
      <point x="617" y="1004"/>
      <point x="865" y="1004" type="curve" smooth="yes"/>
      <point x="1115" y="1005" type="line"/>
      <point x="1115" y="148" type="line"/>
    </contour>
  </outline>
</glyph>
<glyph name="oe" format="1">
  <advance width="1673"/>
  <unicode hex="0153"/>
  <outline>
    <contour>
      <point x="518" y="-22" type="curve" smooth="yes"/>
      <point x="669" y="-22"/>
      <point x="780" y="44"/>
      <point x="849" y="136" type="curve"/>
      <point x="919" y="43"/>
      <point x="1037" y="-22"/>
      <point x="1199" y="-22" type="curve" smooth="yes"/>
      <point x="1358" y="-22"/>
      <point x="1486" y="31"/>
      <point x="1561" y="120" type="curve"/>
      <point x="1462" y="232" type="line"/>
      <point x="1395" y="171"/>
      <point x="1300" y="136"/>
      <point x="1212" y="136" type="curve" smooth="yes"/>
      <point x="1057" y="136"/>
      <point x="971" y="226"/>
      <point x="962" y="359" type="curve"/>
      <point x="1573" y="359" type="line"/>
      <point x="1573" y="626"/>
      <point x="1448" y="826"/>
      <point x="1182" y="826" type="curve" smooth="yes"/>
      <point x="1040" y="826"/>
      <point x="925" y="765"/>
      <point x="851" y="664" type="curve"/>
      <point x="778" y="767"/>
      <point x="659" y="826"/>
      <point x="521" y="826" type="curve" smooth="yes"/>
      <point x="262" y="826"/>
      <point x="82" y="649"/>
      <point x="82" y="402" type="curve" smooth="yes"/>
      <point x="82" y="156"/>
      <point x="254" y="-22"/>
    </contour>
    <contour>
      <point x="520" y="139" type="curve" smooth="yes"/>
      <point x="386" y="138"/>
      <point x="302" y="246"/>
      <point x="302" y="402" type="curve" smooth="yes"/>
      <point x="302" y="555"/>
      <point x="384" y="661"/>
      <point x="519" y="661" type="curve" smooth="yes"/>
      <point x="655" y="661"/>
      <point x="738" y="555"/>
      <point x="738" y="402" type="curve" smooth="yes"/>
      <point x="738" y="246"/>
      <point x="654" y="138"/>
    </contour>
    <contour>
      <point x="965" y="479" type="line"/>
      <point x="985" y="599"/>
      <point x="1057" y="676"/>
      <point x="1184" y="676" type="curve" smooth="yes"/>
      <point x="1306" y="676"/>
      <point x="1360" y="595"/>
      <point x="1373" y="479" type="curve"/>
    </contour>
  </outline>
</glyph>
<glyph name="dotlessj" format="1">
  <advance width="572"/>
  <unicode hex="0237"/>
  <outline>
    <contour>
      <point x="306" y="804" type="move" name="top"/>
    </contour>
    <contour>
      <point x="0" y="-343" type="line"/>
      <point x="99" y="-343" type="line" smooth="yes"/>
      <point x="449" y="-343"/>
      <point x="457" y="-142"/>
      <point x="457" y="84" type="curve" smooth="yes"/>
      <point x="457" y="804" type="line"/>
      <point x="67" y="804" type="line"/>
      <point x="67" y="650" type="line"/>
      <point x="231" y="650" type="line"/>
      <point x="231" y="5" type="line" smooth="yes"/>
      <point x="231" y="-125"/>
      <point x="196" y="-169"/>
      <point x="90" y="-169" type="curve" smooth="yes"/>
      <point x="0" y="-169" type="line"/>
    </contour>
  </outline>
</glyph>
<glyph name="circumflex" format="1">
  <advance width="674"/>
  <unicode hex="02C6"/>
  <outline>
    <contour>
      <point x="340" y="804" type="move" name="_top"/>
    </contour>
    <contour>
      <point x="49" y="917" type="line"/>
      <point x="203" y="917" type="line"/>
      <point x="335" y="1168" type="line"/>
      <point x="468" y="917" type="line"/>
      <point x="626" y="917" type="line"/>
      <point x="472" y="1253" type="line"/>
      <point x="198" y="1253" type="line"/>
    </contour>
  </outline>
</glyph>
<glyph name="caron" format="1">
  <advance width="648"/>
  <unicode hex="02C7"/>
  <outline>
    <contour>
      <point x="323" y="804" type="move" name="_top"/>
    </contour>
    <contour>
      <point x="211" y="915" type="line"/>
      <point x="439" y="915" type="line"/>
      <point x="594" y="1235" type="line"/>
      <point x="444" y="1235" type="line"/>
      <point x="326" y="1026" type="line"/>
      <point x="203" y="1235" type="line"/>
      <point x="49" y="1235" type="line"/>
    </contour>
  </outline>
</glyph>
<glyph name="uni02C9" format="1">
  <advance width="600"/>
  <unicode hex="02C9"/>
  <outline>
    <contour>
      <point x="62" y="925" type="line"/>
      <point x="522" y="925" type="line"/>
      <point x="522" y="1059" type="line"/>
      <point x="62" y="1059" type="line"/>
    </contour>
  </outline>
</glyph>
<glyph name="breve" format="1">
  <advance width="634"/>
  <unicode hex="02D8"/>
  <outline>
    <contour>
      <point x="317" y="804" type="move" name="_top"/>
    </contour>
    <contour>
      <point x="315" y="911" type="curve" smooth="yes"/>
      <point x="475" y="911"/>
      <point x="580" y="1011"/>
      <point x="595" y="1169" type="curve"/>
      <point x="447" y="1169" type="line"/>
      <point x="438" y="1091"/>
      <point x="388" y="1047"/>
      <point x="316" y="1047" type="curve" smooth="yes"/>
      <point x="240" y="1047"/>
      <point x="194" y="1091"/>
      <point x="182" y="1169" type="curve"/>
      <point x="39" y="1169" type="line"/>
      <point x="50" y="1010"/>
      <point x="158" y="911"/>
    </contour>
  </outline>
</glyph>
<glyph name="dotaccent" format="1">
  <advance width="365"/>
  <unicode hex="02D9"/>
  <outline>
    <contour>
      <point x="185" y="804" type="move" name="_top"/>
    </contour>
    <contour>
      <point x="187" y="966" type="curve" smooth="yes"/>
      <point x="272" y="966"/>
      <point x="336" y="1027"/>
      <point x="336" y="1108" type="curve" smooth="yes"/>
      <point x="336" y="1187"/>
      <point x="272" y="1248"/>
      <point x="187" y="1248" type="curve" smooth="yes"/>
      <point x="103" y="1248"/>
      <point x="39" y="1187"/>
      <point x="39" y="1108" type="curve" smooth="yes"/>
      <point x="39" y="1027"/>
      <point x="103" y="966"/>
    </contour>
  </outline>
</glyph>
<glyph name="ring" format="1">
  <advance width="518"/>
  <unicode hex="02DA"/>
  <outline>
    <contour>
      <point x="258" y="804" type="move" name="_top"/>
    </contour>
    <contour>
      <point x="259" y="966" type="curve" smooth="yes"/>
      <point x="199" y="966"/>
      <point x="165" y="1007"/>
      <point x="165" y="1057" type="curve" smooth="yes"/>
      <point x="165" y="1107"/>
      <point x="199" y="1148"/>
      <point x="259" y="1148" type="curve" smooth="yes"/>
      <point x="319" y="1148"/>
      <point x="354" y="1107"/>
      <point x="354" y="1057" type="curve" smooth="yes"/>
      <point x="354" y="1007"/>
      <point x="319" y="966"/>
    </contour>
    <contour>
      <point x="259" y="883" type="curve" smooth="yes"/>
      <point x="375" y="883"/>
      <point x="445" y="963"/>
      <point x="445" y="1059" type="curve" smooth="yes"/>
      <point x="445" y="1153"/>
      <point x="377" y="1229"/>
      <point x="259" y="1230" type="curve" smooth="yes"/>
      <point x="141" y="1229"/>
      <point x="74" y="1153"/>
      <point x="74" y="1059" type="curve" smooth="yes"/>
      <point x="74" y="963"/>
      <point x="143" y="883"/>
    </contour>
  </outline>
</glyph>
<glyph name="ogonek" format="1">
  <advance width="431"/>
  <unicode hex="02DB"/>
  <outline>
    <contour>
      <point x="218" y="0" type="move" name="_ogonek"/>
    </contour>
    <contour>
      <point x="280" y="-365" type="curve" smooth="yes"/>
      <point x="328" y="-365"/>
      <point x="364" y="-354"/>
      <point x="420" y="-327" type="curve"/>
      <point x="420" y="-216" type="line"/>
      <point x="390" y="-229"/>
      <point x="366" y="-234"/>
      <point x="337" y="-234" type="curve" smooth="yes"/>
      <point x="269" y="-234"/>
      <point x="234" y="-196"/>
      <point x="234" y="-126" type="curve" smooth="yes"/>
      <point x="234" y="-86"/>
      <point x="244" y="-41"/>
      <point x="280" y="9" type="curve"/>
      <point x="167" y="9" type="line"/>
      <point x="114" y="-68"/>
      <point x="98" y="-130"/>
      <point x="98" y="-187" type="curve" smooth="yes"/>
      <point x="98" y="-291"/>
      <point x="172" y="-365"/>
    </contour>
  </outline>
</glyph>
<glyph name="tilde" format="1">
  <advance width="708"/>
  <unicode hex="02DC"/>
  <outline>
    <contour>
      <point x="360" y="804" type="move" name="_top"/>
    </contour>
    <contour>
      <point x="505" y="907" type="curve" smooth="yes"/>
      <point x="622" y="906"/>
      <point x="671" y="1009"/>
      <point x="682" y="1137" type="curve"/>
      <point x="589" y="1137" type="line"/>
      <point x="579" y="1091"/>
      <point x="554" y="1071"/>
      <point x="517" y="1071" type="curve" smooth="yes"/>
      <point x="448" y="1071"/>
      <point x="311" y="1147"/>
      <point x="222" y="1147" type="curve" smooth="yes"/>
      <point x="125" y="1147"/>
      <point x="48" y="1085"/>
      <point x="34" y="920" type="curve"/>
      <point x="129" y="920" type="line"/>
      <point x="137" y="964"/>
      <point x="162" y="983"/>
      <point x="197" y="983" type="curve" smooth="yes"/>
      <point x="277" y="983"/>
      <point x="412" y="907"/>
    </contour>
  </outline>
</glyph>
<glyph name="hungarumlaut" format="1">
  <advance width="832"/>
  <unicode hex="02DD"/>
  <outline>
    <contour>
      <point x="323" y="804" type="move" name="_top"/>
    </contour>
    <contour>
      <point x="107" y="961" type="line"/>
      <point x="248" y="961" type="line"/>
      <point x="463" y="1291" type="line"/>
      <point x="220" y="1291" type="line"/>
    </contour>
    <contour>
      <point x="447" y="961" type="line"/>
      <point x="588" y="961" type="line"/>
      <point x="803" y="1291" type="line"/>
      <point x="560" y="1291" type="line"/>
    </contour>
  </outline>
</glyph>
<glyph name="uni0307" format="1">
  <advance width="535"/>
  <unicode hex="0307"/>
  <outline>
    <contour>
      <point x="270" y="805" type="move" name="_top"/>
    </contour>
    <contour>
      <point x="268" y="914" type="curve" smooth="yes"/>
      <point x="348" y="914"/>
      <point x="397" y="971"/>
      <point x="396" y="1038" type="curve"/>
      <point x="396" y="1115"/>
      <point x="340" y="1161"/>
      <point x="268" y="1161" type="curve" smooth="yes"/>
      <point x="197" y="1161"/>
      <point x="139" y="1109"/>
      <point x="140" y="1038" type="curve" smooth="yes"/>
      <point x="140" y="968"/>
      <point x="197" y="914"/>
    </contour>
  </outline>
</glyph>
<glyph name="dblgravecmb" format="1">
  <advance width="704"/>
  <unicode hex="030F"/>
  <outline>
    <contour>
      <point x="459" y="804" type="move" name="_top"/>
    </contour>
    <contour>
      <point x="194" y="961" type="line"/>
      <point x="335" y="961" type="line"/>
      <point x="222" y="1291" type="line"/>
      <point x="-21" y="1291" type="line"/>
    </contour>
    <contour>
      <point x="534" y="961" type="line"/>
      <point x="675" y="961" type="line"/>
      <point x="562" y="1291" type="line"/>
      <point x="319" y="1291" type="line"/>
    </contour>
  </outline>
</glyph>
<glyph name="breveinvertedcomb" format="1">
  <advance width="584"/>
  <unicode hex="0311"/>
  <outline>
    <contour>
      <point x="289" y="840" type="move" name="_top"/>
    </contour>
    <contour>
      <point x="-8" y="947" type="curve"/>
      <point x="159" y="947" type="line"/>
      <point x="171" y="1020"/>
      <point x="214" y="1060"/>
      <point x="285" y="1060" type="curve" smooth="yes"/>
      <point x="353" y="1060"/>
      <point x="399" y="1020"/>
      <point x="408" y="947" type="curve"/>
      <point x="580" y="947" type="line"/>
      <point x="565" y="1114"/>
      <point x="452" y="1221"/>
      <point x="284" y="1221" type="curve" smooth="yes"/>
      <point x="118" y="1221"/>
      <point x="4" y="1115"/>
    </contour>
  </outline>
</glyph>
<glyph name="commaturnedabovecomb" format="1">
  <advance width="600"/>
  <unicode hex="0312"/>
  <outline>
    <contour>
      <point x="177" y="804" type="move" name="_top"/>
    </contour>
    <contour>
      <point x="93" y="908" type="curve"/>
      <point x="358" y="908" type="line"/>
      <point x="357" y="1151" type="line"/>
      <point x="210" y="1151" type="line"/>
      <point x="210" y="1236"/>
      <point x="264" y="1271"/>
      <point x="357" y="1287" type="curve"/>
      <point x="357" y="1378" type="line"/>
      <point x="175" y="1378"/>
      <point x="89" y="1307"/>
      <point x="90" y="1141" type="curve"/>
      <point x="90" y="1122"/>
      <point x="91" y="923"/>
    </contour>
  </outline>
</glyph>
<glyph name="Delta" format="1">
  <advance width="1177"/>
  <unicode hex="0394"/>
  <outline>
    <contour>
      <point x="80" y="0" type="line"/>
      <point x="1098" y="0" type="line"/>
      <point x="1098" y="106" type="line"/>
      <point x="689" y="1152" type="line"/>
      <point x="488" y="1152" type="line"/>
      <point x="80" y="106" type="line"/>
    </contour>
    <contour>
      <point x="279" y="159" type="line"/>
      <point x="563" y="931" type="line"/>
      <point x="833" y="159" type="line"/>
    </contour>
  </outline>
</glyph>
<glyph name="Sigma" format="1">
  <advance width="1005"/>
  <unicode hex="03A3"/>
  <outline>
    <contour>
      <point x="72" y="0" type="line"/>
      <point x="942" y="0" type="line"/>
      <point x="942" y="170" type="line"/>
      <point x="394" y="170" type="line"/>
      <point x="780" y="567" type="line"/>
      <point x="397" y="987" type="line"/>
      <point x="908" y="987" type="line"/>
      <point x="908" y="1152" type="line"/>
      <point x="89" y="1152" type="line"/>
      <point x="89" y="1043" type="line"/>
      <point x="477" y="577" type="line"/>
      <point x="72" y="121" type="line"/>
    </contour>
  </outline>
</glyph>
<glyph name="pi" format="1">
  <advance width="1215"/>
  <unicode hex="03C0"/>
  <outline>
    <contour>
      <point x="915" y="-19" type="curve" smooth="yes"/>
      <point x="978" y="-19"/>
      <point x="1044" y="2"/>
      <point x="1089" y="33" type="curve"/>
      <point x="1089" y="140" type="line"/>
      <point x="1047" y="127"/>
      <point x="1011" y="120"/>
      <point x="980" y="120" type="curve" smooth="yes"/>
      <point x="919" y="120"/>
      <point x="875" y="148"/>
      <point x="875" y="233" type="curve" smooth="yes"/>
      <point x="875" y="315"/>
      <point x="880" y="446"/>
      <point x="893" y="596" type="curve"/>
      <point x="1096" y="596" type="line"/>
      <point x="1096" y="804" type="line"/>
      <point x="391" y="804" type="line" smooth="yes"/>
      <point x="201" y="804"/>
      <point x="124" y="661"/>
      <point x="125" y="496" type="curve"/>
      <point x="228" y="496" type="line"/>
      <point x="237" y="557"/>
      <point x="271" y="596"/>
      <point x="325" y="596" type="curve" smooth="yes"/>
      <point x="398" y="596" type="line"/>
      <point x="345" y="300" type="line" smooth="yes"/>
      <point x="315" y="136"/>
      <point x="227" y="93"/>
      <point x="154" y="89" type="curve"/>
      <point x="154" y="-1" type="line"/>
      <point x="269" y="-1" type="line" smooth="yes"/>
      <point x="434" y="-1"/>
      <point x="517" y="79"/>
      <point x="528" y="245" type="curve" smooth="yes"/>
      <point x="551" y="596" type="line"/>
      <point x="765" y="596" type="line"/>
      <point x="721" y="445"/>
      <point x="680" y="307"/>
      <point x="680" y="196" type="curve" smooth="yes"/>
      <point x="680" y="69"/>
      <point x="737" y="-19"/>
    </contour>
  </outline>
</glyph>
<glyph name="quoteleft" format="1">
  <advance width="546"/>
  <unicode hex="2018"/>
  <outline>
    <contour>
      <point x="143" y="752" type="line"/>
      <point x="368" y="752" type="line"/>
      <point x="368" y="982" type="line"/>
      <point x="263" y="982" type="line"/>
      <point x="264" y="1075"/>
      <point x="290" y="1106"/>
      <point x="363" y="1118" type="curve"/>
      <point x="363" y="1221" type="line"/>
      <point x="195" y="1220"/>
      <point x="143" y="1119"/>
      <point x="143" y="977" type="curve" smooth="yes"/>
    </contour>
  </outline>
</glyph>
<glyph name="quoteright" format="1">
  <advance width="548"/>
  <unicode hex="2019"/>
  <outline>
    <contour>
      <point x="182" y="732" type="line"/>
      <point x="351" y="734"/>
      <point x="402" y="836"/>
      <point x="402" y="978" type="curve" smooth="yes"/>
      <point x="402" y="1202" type="line"/>
      <point x="177" y="1202" type="line"/>
      <point x="177" y="973" type="line"/>
      <point x="283" y="973" type="line"/>
      <point x="281" y="879"/>
      <point x="257" y="847"/>
      <point x="182" y="836" type="curve"/>
    </contour>
  </outline>
</glyph>
<glyph name="quotesinglbase" format="1">
  <advance width="544"/>
  <unicode hex="201A"/>
  <outline>
    <contour>
      <point x="180" y="-251" type="line"/>
      <point x="349" y="-249"/>
      <point x="400" y="-146"/>
      <point x="400" y="-5" type="curve" smooth="yes"/>
      <point x="400" y="220" type="line"/>
      <point x="175" y="220" type="line"/>
      <point x="175" y="-10" type="line"/>
      <point x="281" y="-10" type="line"/>
      <point x="279" y="-104"/>
      <point x="254" y="-136"/>
      <point x="180" y="-147" type="curve"/>
    </contour>
  </outline>
</glyph>
<glyph name="quotedblleft" format="1">
  <advance width="895"/>
  <unicode hex="201C"/>
  <outline>
    <contour>
      <point x="162" y="752" type="line"/>
      <point x="387" y="752" type="line"/>
      <point x="387" y="982" type="line"/>
      <point x="282" y="982" type="line"/>
      <point x="283" y="1075"/>
      <point x="309" y="1106"/>
      <point x="383" y="1118" type="curve"/>
      <point x="383" y="1221" type="line"/>
      <point x="214" y="1220"/>
      <point x="162" y="1119"/>
      <point x="162" y="977" type="curve" smooth="yes"/>
    </contour>
    <contour>
      <point x="490" y="752" type="line"/>
      <point x="714" y="752" type="line"/>
      <point x="714" y="982" type="line"/>
      <point x="610" y="982" type="line"/>
      <point x="611" y="1075"/>
      <point x="637" y="1106"/>
      <point x="710" y="1118" type="curve"/>
      <point x="710" y="1221" type="line"/>
      <point x="542" y="1220"/>
      <point x="490" y="1119"/>
      <point x="490" y="977" type="curve" smooth="yes"/>
    </contour>
  </outline>
</glyph>
<glyph name="quotedblright" format="1">
  <advance width="910"/>
  <unicode hex="201D"/>
  <outline>
    <contour>
      <point x="182" y="732" type="line"/>
      <point x="351" y="734"/>
      <point x="402" y="836"/>
      <point x="402" y="978" type="curve" smooth="yes"/>
      <point x="402" y="1202" type="line"/>
      <point x="177" y="1202" type="line"/>
      <point x="177" y="973" type="line"/>
      <point x="283" y="973" type="line"/>
      <point x="281" y="879"/>
      <point x="257" y="847"/>
      <point x="182" y="836" type="curve"/>
    </contour>
    <contour>
      <point x="504" y="732" type="line"/>
      <point x="673" y="734"/>
      <point x="724" y="836"/>
      <point x="724" y="978" type="curve" smooth="yes"/>
      <point x="724" y="1202" type="line"/>
      <point x="499" y="1202" type="line"/>
      <point x="499" y="973" type="line"/>
      <point x="606" y="973" type="line"/>
      <point x="603" y="879"/>
      <point x="579" y="847"/>
      <point x="504" y="836" type="curve"/>
    </contour>
  </outline>
</glyph>
<glyph name="quotedblbase" format="1">
  <advance width="939"/>
  <unicode hex="201E"/>
  <outline>
    <contour>
      <point x="181" y="-251" type="line"/>
      <point x="350" y="-249"/>
      <point x="401" y="-146"/>
      <point x="401" y="-5" type="curve" smooth="yes"/>
      <point x="401" y="220" type="line"/>
      <point x="176" y="220" type="line"/>
      <point x="176" y="-10" type="line"/>
      <point x="282" y="-10" type="line"/>
      <point x="280" y="-104"/>
      <point x="256" y="-136"/>
      <point x="181" y="-147" type="curve"/>
    </contour>
    <contour>
      <point x="552" y="-251" type="line"/>
      <point x="721" y="-249"/>
      <point x="772" y="-146"/>
      <point x="772" y="-5" type="curve" smooth="yes"/>
      <point x="772" y="220" type="line"/>
      <point x="547" y="220" type="line"/>
      <point x="547" y="-10" type="line"/>
      <point x="653" y="-10" type="line"/>
      <point x="651" y="-104"/>
      <point x="627" y="-136"/>
      <point x="552" y="-147" type="curve"/>
    </contour>
  </outline>
</glyph>
<glyph name="perthousand" format="1">
  <advance width="2548"/>
  <unicode hex="2030"/>
  <outline>
    <contour>
      <point x="2124" y="101" type="curve" smooth="yes"/>
      <point x="2030" y="102"/>
      <point x="1961" y="177"/>
      <point x="1961" y="281" type="curve" smooth="yes"/>
      <point x="1961" y="383"/>
      <point x="2030" y="457"/>
      <point x="2124" y="458" type="curve" smooth="yes"/>
      <point x="2220" y="457"/>
      <point x="2289" y="383"/>
      <point x="2289" y="281" type="curve" smooth="yes"/>
      <point x="2289" y="177"/>
      <point x="2220" y="102"/>
    </contour>
    <contour>
      <point x="2124" y="-22" type="curve" smooth="yes"/>
      <point x="2306" y="-22"/>
      <point x="2440" y="106"/>
      <point x="2440" y="281" type="curve" smooth="yes"/>
      <point x="2440" y="453"/>
      <point x="2306" y="579"/>
      <point x="2124" y="579" type="curve" smooth="yes"/>
      <point x="1942" y="579"/>
      <point x="1810" y="453"/>
      <point x="1810" y="281" type="curve" smooth="yes"/>
      <point x="1810" y="106"/>
      <point x="1942" y="-22"/>
    </contour>
    <component base="percent"/>
  </outline>
</glyph>
<glyph name="guilsinglleft" format="1">
  <advance width="681"/>
  <unicode hex="2039"/>
  <outline>
    <contour>
      <point x="372" y="135" type="line"/>
      <point x="538" y="135" type="line"/>
      <point x="325" y="554" type="line"/>
      <point x="538" y="975" type="line"/>
      <point x="372" y="975" type="line"/>
      <point x="55" y="553" type="line"/>
    </contour>
  </outline>
</glyph>
<glyph name="guilsinglright" format="1">
  <advance width="681"/>
  <unicode hex="203A"/>
  <outline>
    <contour>
      <point x="150" y="135" type="line"/>
      <point x="315" y="135" type="line"/>
      <point x="633" y="557" type="line"/>
      <point x="315" y="975" type="line"/>
      <point x="150" y="975" type="line"/>
      <point x="363" y="555" type="line"/>
    </contour>
  </outline>
</glyph>
<glyph name="fraction" format="1">
  <advance width="755"/>
  <unicode hex="2044"/>
  <outline>
    <contour>
      <point x="-103" y="-59" type="line"/>
      <point x="34" y="-59" type="line"/>
      <point x="849" y="1242" type="line"/>
      <point x="716" y="1242" type="line"/>
    </contour>
  </outline>
</glyph>
<glyph name="Euro" format="1">
  <advance width="1372"/>
  <unicode hex="20AC"/>
  <outline>
    <contour>
      <point x="-23" y="395" type="line"/>
      <point x="622" y="395" type="line"/>
      <point x="662" y="516" type="line"/>
      <point x="256" y="516" type="line"/>
      <point x="256" y="634" type="line"/>
      <point x="622" y="634" type="line"/>
      <point x="662" y="755" type="line"/>
      <point x="17" y="755" type="line"/>
      <point x="-23" y="634" type="line"/>
      <point x="184" y="634" type="line"/>
      <point x="184" y="516" type="line"/>
      <point x="17" y="516" type="line"/>
    </contour>
    <component base="C"/>
  </outline>
</glyph>
<glyph name="uni2113" format="1">
  <advance width="738"/>
  <unicode hex="2113"/>
  <outline>
    <contour>
      <point x="625" y="-9" type="curve"/>
      <point x="648" y="152" type="line"/>
      <point x="453" y="152"/>
      <point x="438" y="195"/>
      <point x="464" y="371" type="curve"/>
      <point x="593" y="1206" type="line"/>
      <point x="205" y="1206" type="line"/>
      <point x="178" y="1040" type="line"/>
      <point x="335" y="1040" type="line"/>
      <point x="217" y="275" type="line" smooth="yes"/>
      <point x="181" y="48"/>
      <point x="363" y="-11"/>
    </contour>
  </outline>
</glyph>
<glyph name="trademark" format="1">
  <advance width="1833"/>
  <unicode hex="2122"/>
  <outline>
    <contour>
      <point x="806" y="480" type="line"/>
      <point x="1079" y="480" type="line"/>
      <point x="1079" y="579" type="line"/>
      <point x="997" y="579" type="line"/>
      <point x="997" y="1004" type="line"/>
      <point x="1209" y="489" type="line"/>
      <point x="1267" y="489" type="line"/>
      <point x="1473" y="1005" type="line"/>
      <point x="1473" y="579" type="line"/>
      <point x="1392" y="579" type="line"/>
      <point x="1392" y="480" type="line"/>
      <point x="1689" y="480" type="line"/>
      <point x="1689" y="579" type="line"/>
      <point x="1604" y="579" type="line"/>
      <point x="1604" y="1053" type="line"/>
      <point x="1689" y="1053" type="line"/>
      <point x="1689" y="1152" type="line"/>
      <point x="1415" y="1152" type="line"/>
      <point x="1240" y="711" type="line"/>
      <point x="1069" y="1152" type="line"/>
      <point x="806" y="1152" type="line"/>
      <point x="806" y="1053" type="line"/>
      <point x="891" y="1053" type="line"/>
      <point x="891" y="579" type="line"/>
      <point x="806" y="579" type="line"/>
    </contour>
    <contour>
      <point x="275" y="480" type="line"/>
      <point x="611" y="480" type="line"/>
      <point x="611" y="579" type="line"/>
      <point x="514" y="579" type="line"/>
      <point x="514" y="1053" type="line"/>
      <point x="628" y="1053" type="line"/>
      <point x="628" y="886" type="line"/>
      <point x="735" y="886" type="line"/>
      <point x="735" y="1152" type="line"/>
      <point x="150" y="1152" type="line"/>
      <point x="150" y="886" type="line"/>
      <point x="257" y="886" type="line"/>
      <point x="257" y="1053" type="line"/>
      <point x="374" y="1053" type="line"/>
      <point x="374" y="579" type="line"/>
      <point x="275" y="579" type="line"/>
    </contour>
  </outline>
</glyph>
<glyph name="uni2126" format="1">
  <advance width="1436"/>
  <unicode hex="2126"/>
  <outline>
    <contour>
      <point x="98" y="0" type="line"/>
      <point x="646" y="0" type="line"/>
      <point x="646" y="145" type="line"/>
      <point x="432" y="231"/>
      <point x="341" y="431"/>
      <point x="341" y="613" type="curve" smooth="yes"/>
      <point x="341" y="821"/>
      <point x="471" y="997"/>
      <point x="718" y="997" type="curve" smooth="yes"/>
      <point x="964" y="997"/>
      <point x="1095" y="820"/>
      <point x="1095" y="612" type="curve" smooth="yes"/>
      <point x="1095" y="431"/>
      <point x="1004" y="231"/>
      <point x="791" y="145" type="curve"/>
      <point x="791" y="0" type="line"/>
      <point x="1339" y="0" type="line"/>
      <point x="1339" y="155" type="line"/>
      <point x="1061" y="155" type="line"/>
      <point x="1253" y="271"/>
      <point x="1339" y="448"/>
      <point x="1339" y="623" type="curve" smooth="yes"/>
      <point x="1339" y="907"/>
      <point x="1108" y="1174"/>
      <point x="718" y="1174" type="curve" smooth="yes"/>
      <point x="331" y="1174"/>
      <point x="98" y="906"/>
      <point x="98" y="621" type="curve" smooth="yes"/>
      <point x="98" y="447"/>
      <point x="184" y="271"/>
      <point x="377" y="155" type="curve"/>
      <point x="98" y="155" type="line"/>
    </contour>
  </outline>
</glyph>
<glyph name="estimated" format="1">
  <advance width="1117"/>
  <unicode hex="212E"/>
  <outline>
    <contour>
      <point x="976" y="115" type="curve"/>
      <point x="949" y="151" type="line"/>
      <point x="628" y="-65"/>
      <point x="373" y="58"/>
      <point x="347" y="401" type="curve"/>
      <point x="967" y="401" type="line"/>
      <point x="967" y="665"/>
      <point x="862" y="826"/>
      <point x="580" y="826" type="curve" smooth="yes"/>
      <point x="312" y="826"/>
      <point x="134" y="672"/>
      <point x="134" y="420" type="curve" smooth="yes"/>
      <point x="134" y="-43"/>
      <point x="680" y="-133"/>
    </contour>
    <contour>
      <point x="350" y="461" type="line"/>
      <point x="358" y="890"/>
      <point x="852" y="913"/>
      <point x="852" y="461" type="curve"/>
    </contour>
  </outline>
</glyph>
<glyph name="partialdiff" format="1">
  <advance width="1002"/>
  <unicode hex="2202"/>
  <outline>
    <contour>
      <point x="401" y="-20" type="curve" smooth="yes"/>
      <point x="770" y="-20"/>
      <point x="900" y="425"/>
      <point x="900" y="724" type="curve" smooth="yes"/>
      <point x="900" y="1040"/>
      <point x="766" y="1235"/>
      <point x="496" y="1235" type="curve" smooth="yes"/>
      <point x="324" y="1235"/>
      <point x="225" y="1159"/>
      <point x="225" y="1053" type="curve" smooth="yes"/>
      <point x="225" y="987"/>
      <point x="280" y="929"/>
      <point x="431" y="933" type="curve"/>
      <point x="430" y="1020"/>
      <point x="485" y="1118"/>
      <point x="588" y="1118" type="curve" smooth="yes"/>
      <point x="728" y="1118"/>
      <point x="790" y="800"/>
      <point x="769" y="620" type="curve"/>
      <point x="804" y="625" type="line"/>
      <point x="772" y="705"/>
      <point x="697" y="770"/>
      <point x="561" y="770" type="curve" smooth="yes"/>
      <point x="226" y="770"/>
      <point x="99" y="460"/>
      <point x="99" y="280" type="curve" smooth="yes"/>
      <point x="99" y="127"/>
      <point x="174" y="-20"/>
    </contour>
    <contour>
      <point x="490" y="105" type="curve" smooth="yes"/>
      <point x="418" y="105"/>
      <point x="376" y="167"/>
      <point x="376" y="268" type="curve" smooth="yes"/>
      <point x="376" y="412"/>
      <point x="452" y="657"/>
      <point x="615" y="657" type="curve" smooth="yes"/>
      <point x="677" y="657"/>
      <point x="734" y="623"/>
      <point x="759" y="535" type="curve"/>
      <point x="725" y="304"/>
      <point x="608" y="105"/>
    </contour>
  </outline>
</glyph>
<glyph name="uni2206" format="1">
  <advance width="1230"/>
  <unicode hex="2206"/>
  <outline>
    <contour>
      <point x="87" y="0" type="line"/>
      <point x="1140" y="0" type="line"/>
      <point x="1140" y="133" type="line"/>
      <point x="750" y="1166" type="line"/>
      <point x="499" y="1166" type="line"/>
      <point x="87" y="123" type="line"/>
    </contour>
    <contour>
      <point x="264" y="154" type="line"/>
      <point x="264" y="154"/>
      <point x="552" y="930"/>
      <point x="566" y="993" type="curve"/>
      <point x="580" y="929"/>
      <point x="852" y="154"/>
      <point x="852" y="154" type="curve" smooth="yes"/>
    </contour>
  </outline>
</glyph>
<glyph name="product" format="1">
  <advance width="1497"/>
  <unicode hex="220F"/>
  <outline>
    <contour>
      <point x="105" y="0" type="line"/>
      <point x="662" y="0" type="line"/>
      <point x="662" y="155" type="line"/>
      <point x="508" y="155" type="line"/>
      <point x="508" y="998" type="line"/>
      <point x="989" y="998" type="line"/>
      <point x="989" y="155" type="line"/>
      <point x="836" y="155" type="line"/>
      <point x="836" y="0" type="line"/>
      <point x="1392" y="0" type="line"/>
      <point x="1392" y="155" type="line"/>
      <point x="1240" y="155" type="line"/>
      <point x="1240" y="998" type="line"/>
      <point x="1392" y="998" type="line"/>
      <point x="1392" y="1152" type="line"/>
      <point x="105" y="1152" type="line"/>
      <point x="105" y="998" type="line"/>
      <point x="257" y="998" type="line"/>
      <point x="257" y="155" type="line"/>
      <point x="105" y="155" type="line"/>
    </contour>
  </outline>
</glyph>
<glyph name="summation" format="1">
  <advance width="1310"/>
  <unicode hex="2211"/>
  <outline>
    <contour>
      <point x="111" y="0" type="line"/>
      <point x="1161" y="0" type="line"/>
      <point x="1161" y="370" type="line"/>
      <point x="975" y="370" type="line"/>
      <point x="975" y="155" type="line"/>
      <point x="448" y="155" type="line"/>
      <point x="797" y="548" type="line"/>
      <point x="796" y="630" type="line"/>
      <point x="509" y="998" type="line"/>
      <point x="973" y="998" type="line"/>
      <point x="973" y="796" type="line"/>
      <point x="1158" y="796" type="line"/>
      <point x="1158" y="1152" type="line"/>
      <point x="111" y="1152" type="line"/>
      <point x="111" y="998" type="line"/>
      <point x="269" y="998" type="line"/>
      <point x="610" y="554" type="line"/>
      <point x="269" y="155" type="line"/>
      <point x="111" y="155" type="line"/>
    </contour>
  </outline>
</glyph>
<glyph name="radical" format="1">
  <advance width="1218"/>
  <unicode hex="221A"/>
  <outline>
    <contour>
      <point x="451" y="-11" type="line"/>
      <point x="630" y="-11" type="line"/>
      <point x="1116" y="1346" type="line"/>
      <point x="983" y="1346" type="line"/>
      <point x="567" y="197" type="line"/>
      <point x="374" y="654" type="line"/>
      <point x="37" y="654" type="line"/>
      <point x="37" y="531" type="line"/>
      <point x="203" y="531" type="line"/>
    </contour>
  </outline>
</glyph>
<glyph name="infinity" format="1">
  <advance width="1619"/>
  <unicode hex="221E"/>
  <outline>
    <contour>
      <point x="1151" y="169" type="curve" smooth="yes"/>
      <point x="1353" y="169"/>
      <point x="1476" y="354"/>
      <point x="1476" y="560" type="curve" smooth="yes"/>
      <point x="1476" y="791"/>
      <point x="1352" y="950"/>
      <point x="1154" y="950" type="curve" smooth="yes"/>
      <point x="1015" y="950"/>
      <point x="912" y="874"/>
      <point x="825" y="716" type="curve"/>
      <point x="733" y="888"/>
      <point x="602" y="956"/>
      <point x="471" y="956" type="curve" smooth="yes"/>
      <point x="273" y="956"/>
      <point x="142" y="787"/>
      <point x="142" y="566" type="curve" smooth="yes"/>
      <point x="142" y="322"/>
      <point x="284" y="175"/>
      <point x="471" y="175" type="curve" smooth="yes"/>
      <point x="595" y="175"/>
      <point x="709" y="259"/>
      <point x="792" y="415" type="curve"/>
      <point x="895" y="243"/>
      <point x="1020" y="169"/>
    </contour>
    <contour>
      <point x="477" y="323" type="curve" smooth="yes"/>
      <point x="348" y="323"/>
      <point x="288" y="436"/>
      <point x="288" y="564" type="curve" smooth="yes"/>
      <point x="288" y="703"/>
      <point x="365" y="808"/>
      <point x="473" y="808" type="curve" smooth="yes"/>
      <point x="576" y="808"/>
      <point x="648" y="729"/>
      <point x="718" y="566" type="curve"/>
      <point x="645" y="402"/>
      <point x="567" y="323"/>
    </contour>
    <contour>
      <point x="1143" y="317" type="curve" smooth="yes"/>
      <point x="1041" y="317"/>
      <point x="968" y="401"/>
      <point x="900" y="560" type="curve"/>
      <point x="978" y="725"/>
      <point x="1048" y="802"/>
      <point x="1141" y="802" type="curve" smooth="yes"/>
      <point x="1255" y="802"/>
      <point x="1332" y="696"/>
      <point x="1332" y="562" type="curve" smooth="yes"/>
      <point x="1332" y="430"/>
      <point x="1259" y="317"/>
    </contour>
  </outline>
</glyph>
<glyph name="integral" format="1">
  <advance width="972"/>
  <unicode hex="222B"/>
  <outline>
    <contour>
      <point x="273" y="-333" type="curve" smooth="yes"/>
      <point x="602" y="-333"/>
      <point x="615" y="67"/>
      <point x="615" y="418" type="curve" smooth="yes"/>
      <point x="615" y="588"/>
      <point x="584" y="801"/>
      <point x="584" y="913" type="curve" smooth="yes"/>
      <point x="584" y="1081"/>
      <point x="610" y="1131"/>
      <point x="659" y="1131" type="curve" smooth="yes"/>
      <point x="704" y="1131"/>
      <point x="730" y="1078"/>
      <point x="730" y="975" type="curve"/>
      <point x="876" y="975"/>
      <point x="917" y="1035"/>
      <point x="917" y="1095" type="curve" smooth="yes"/>
      <point x="917" y="1168"/>
      <point x="843" y="1221"/>
      <point x="697" y="1221" type="curve" smooth="yes"/>
      <point x="366" y="1221"/>
      <point x="345" y="850"/>
      <point x="345" y="552" type="curve" smooth="yes"/>
      <point x="345" y="392"/>
      <point x="386" y="135"/>
      <point x="386" y="-24" type="curve" smooth="yes"/>
      <point x="386" y="-196"/>
      <point x="354" y="-243"/>
      <point x="312" y="-243" type="curve" smooth="yes"/>
      <point x="266" y="-243"/>
      <point x="234" y="-204"/>
      <point x="234" y="-80" type="curve"/>
      <point x="87" y="-80"/>
      <point x="47" y="-138"/>
      <point x="47" y="-196" type="curve" smooth="yes"/>
      <point x="47" y="-269"/>
      <point x="114" y="-333"/>
    </contour>
  </outline>
</glyph>
<glyph name="approxequal" format="1">
  <advance width="1246"/>
  <unicode hex="2248"/>
  <outline>
    <contour>
      <point x="167" y="392" type="line"/>
      <point x="227" y="458"/>
      <point x="318" y="511"/>
      <point x="394" y="511" type="curve" smooth="yes"/>
      <point x="454" y="511"/>
      <point x="498" y="498"/>
      <point x="595" y="456" type="curve" smooth="yes"/>
      <point x="722" y="402"/>
      <point x="766" y="392"/>
      <point x="842" y="392" type="curve" smooth="yes"/>
      <point x="941" y="392"/>
      <point x="1021" y="427"/>
      <point x="1090" y="504" type="curve"/>
      <point x="1090" y="672" type="line"/>
      <point x="1029" y="608"/>
      <point x="940" y="553"/>
      <point x="863" y="553" type="curve" smooth="yes"/>
      <point x="804" y="553"/>
      <point x="758" y="567"/>
      <point x="662" y="609" type="curve" smooth="yes"/>
      <point x="535" y="663"/>
      <point x="491" y="672"/>
      <point x="414" y="672" type="curve" smooth="yes"/>
      <point x="316" y="672"/>
      <point x="236" y="637"/>
      <point x="167" y="562" type="curve"/>
    </contour>
    <contour>
      <point x="167" y="742" type="line"/>
      <point x="227" y="808"/>
      <point x="318" y="861"/>
      <point x="394" y="861" type="curve" smooth="yes"/>
      <point x="454" y="861"/>
      <point x="498" y="848"/>
      <point x="595" y="806" type="curve" smooth="yes"/>
      <point x="722" y="752"/>
      <point x="766" y="742"/>
      <point x="842" y="742" type="curve" smooth="yes"/>
      <point x="941" y="742"/>
      <point x="1021" y="777"/>
      <point x="1090" y="854" type="curve"/>
      <point x="1090" y="1022" type="line"/>
      <point x="1029" y="958"/>
      <point x="940" y="903"/>
      <point x="863" y="903" type="curve" smooth="yes"/>
      <point x="804" y="903"/>
      <point x="758" y="917"/>
      <point x="662" y="959" type="curve" smooth="yes"/>
      <point x="535" y="1013"/>
      <point x="491" y="1022"/>
      <point x="414" y="1022" type="curve" smooth="yes"/>
      <point x="316" y="1022"/>
      <point x="236" y="987"/>
      <point x="167" y="912" type="curve"/>
    </contour>
  </outline>
</glyph>
<glyph name="notequal" format="1">
  <advance width="1145"/>
  <unicode hex="2260"/>
  <outline>
    <contour>
      <point x="368" y="0" type="line"/>
      <point x="527" y="0" type="line"/>
      <point x="579" y="207" type="line"/>
      <point x="1018" y="207" type="line"/>
      <point x="1018" y="362" type="line"/>
      <point x="619" y="362" type="line"/>
      <point x="680" y="600" type="line"/>
      <point x="1018" y="600" type="line"/>
      <point x="1018" y="755" type="line"/>
      <point x="721" y="755" type="line"/>
      <point x="775" y="962" type="line"/>
      <point x="618" y="962" type="line"/>
      <point x="563" y="755" type="line"/>
      <point x="127" y="755" type="line"/>
      <point x="127" y="600" type="line"/>
      <point x="522" y="600" type="line"/>
      <point x="459" y="362" type="line"/>
      <point x="127" y="362" type="line"/>
      <point x="127" y="207" type="line"/>
      <point x="419" y="207" type="line"/>
    </contour>
  </outline>
</glyph>
<glyph name="lessequal" format="1">
  <advance width="1047"/>
  <unicode hex="2264"/>
  <outline>
    <contour>
      <point x="921" y="226" type="line"/>
      <point x="921" y="402" type="line"/>
      <point x="277" y="731" type="line"/>
      <point x="921" y="1065" type="line"/>
      <point x="921" y="1240" type="line"/>
      <point x="42" y="777" type="line"/>
      <point x="42" y="687" type="line"/>
    </contour>
    <contour>
      <point x="42" y="0" type="line"/>
      <point x="921" y="0" type="line"/>
      <point x="921" y="158" type="line"/>
      <point x="42" y="158" type="line"/>
    </contour>
  </outline>
</glyph>
<glyph name="greaterequal" format="1">
  <advance width="1048"/>
  <unicode hex="2265"/>
  <outline>
    <contour>
      <point x="129" y="226" type="line"/>
      <point x="1008" y="687" type="line"/>
      <point x="1008" y="777" type="line"/>
      <point x="129" y="1240" type="line"/>
      <point x="129" y="1065" type="line"/>
      <point x="773" y="731" type="line"/>
      <point x="129" y="402" type="line"/>
    </contour>
    <contour>
      <point x="129" y="0" type="line"/>
      <point x="1008" y="0" type="line"/>
      <point x="1008" y="158" type="line"/>
      <point x="129" y="158" type="line"/>
    </contour>
  </outline>
</glyph>
<glyph name="fi" format="1">
  <advance width="1276"/>
  <unicode hex="FB01"/>
  <outline>
    <contour>
      <point x="100" y="0" type="line"/>
      <point x="637" y="0" type="line"/>
      <point x="637" y="154" type="line"/>
      <point x="462" y="154" type="line"/>
      <point x="462" y="650" type="line"/>
      <point x="884" y="650" type="line"/>
      <point x="884" y="154" type="line"/>
      <point x="744" y="154" type="line"/>
      <point x="744" y="0" type="line"/>
      <point x="1231" y="0" type="line"/>
      <point x="1231" y="154" type="line"/>
      <point x="1106" y="154" type="line"/>
      <point x="1106" y="804" type="line"/>
      <point x="462" y="804" type="line"/>
      <point x="462" y="899" type="line" smooth="yes"/>
      <point x="462" y="1107"/>
      <point x="558" y="1175"/>
      <point x="692" y="1175" type="curve" smooth="yes"/>
      <point x="783" y="1175"/>
      <point x="851" y="1148"/>
      <point x="886" y="1121" type="curve"/>
      <point x="875" y="1103"/>
      <point x="869" y="1083"/>
      <point x="869" y="1062" type="curve" smooth="yes"/>
      <point x="869" y="1000"/>
      <point x="920" y="952"/>
      <point x="992" y="952" type="curve" smooth="yes"/>
      <point x="1069" y="952"/>
      <point x="1119" y="1005"/>
      <point x="1119" y="1069" type="curve" smooth="yes"/>
      <point x="1119" y="1208"/>
      <point x="913" y="1297"/>
      <point x="694" y="1297" type="curve" smooth="yes"/>
      <point x="467" y="1297"/>
      <point x="239" y="1199"/>
      <point x="239" y="892" type="curve" smooth="yes"/>
      <point x="239" y="804" type="line"/>
      <point x="97" y="804" type="line"/>
      <point x="97" y="650" type="line"/>
      <point x="239" y="650" type="line"/>
      <point x="239" y="154" type="line"/>
      <point x="100" y="154" type="line"/>
    </contour>
  </outline>
</glyph>
<glyph name="fl" format="1">
  <advance width="1292"/>
  <unicode hex="FB02"/>
  <outline>
    <contour>
      <point x="93" y="0" type="line"/>
      <point x="630" y="0" type="line"/>
      <point x="630" y="154" type="line"/>
      <point x="455" y="154" type="line"/>
      <point x="455" y="650" type="line"/>
      <point x="627" y="650" type="line"/>
      <point x="627" y="804" type="line"/>
      <point x="455" y="804" type="line"/>
      <point x="455" y="951" type="line" smooth="yes"/>
      <point x="455" y="1061"/>
      <point x="597" y="1109"/>
      <point x="727" y="1109" type="curve" smooth="yes"/>
      <point x="807" y="1109"/>
      <point x="875" y="1090"/>
      <point x="875" y="1042" type="curve" smooth="yes"/>
      <point x="875" y="154" type="line" smooth="yes"/>
      <point x="875" y="80"/>
      <point x="927" y="0"/>
      <point x="1020" y="0" type="curve" smooth="yes"/>
      <point x="1245" y="0" type="line"/>
      <point x="1245" y="154" type="line"/>
      <point x="1099" y="154" type="line"/>
      <point x="1099" y="1110" type="line" smooth="yes"/>
      <point x="1099" y="1220"/>
      <point x="929" y="1281"/>
      <point x="739" y="1281" type="curve" smooth="yes"/>
      <point x="501" y="1281"/>
      <point x="232" y="1189"/>
      <point x="232" y="937" type="curve" smooth="yes"/>
      <point x="232" y="804" type="line"/>
      <point x="90" y="804" type="line"/>
      <point x="90" y="650" type="line"/>
      <point x="232" y="650" type="line"/>
      <point x="232" y="154" type="line"/>
      <point x="93" y="154" type="line"/>
    </contour>
  </outline>
</glyph>
<glyph name="caron.alt" format="1">
  <advance width="600"/>
  <outline>
    <contour>
      <point x="118" y="804" type="move" name="_caron.alt"/>
    </contour>
    <contour>
      <point x="91" y="719" type="line"/>
      <point x="268" y="719"/>
      <point x="358" y="796"/>
      <point x="358" y="939" type="curve"/>
      <point x="358" y="1174" type="line"/>
      <point x="91" y="1174" type="line"/>
      <point x="91" y="952" type="line"/>
      <point x="225" y="952" type="line"/>
      <point x="225" y="871"/>
      <point x="182" y="836"/>
      <point x="91" y="822" type="curve"/>
    </contour>
  </outline>
</glyph>
<glyph name="commaaccent" format="1">
  <advance width="412"/>
  <outline>
    <contour>
      <point x="226" y="0" type="move" name="_bot"/>
    </contour>
    <contour>
      <point x="97" y="-556" type="line"/>
      <point x="275" y="-556"/>
      <point x="365" y="-479"/>
      <point x="364" y="-335" type="curve"/>
      <point x="364" y="-101" type="line"/>
      <point x="97" y="-101" type="line"/>
      <point x="97" y="-322" type="line"/>
      <point x="232" y="-322" type="line"/>
      <point x="232" y="-404"/>
      <point x="188" y="-438"/>
      <point x="97" y="-453" type="curve"/>
    </contour>
  </outline>
</glyph>
<glyph name="ff" format="1">
  <advance width="1434"/>
  <outline>
    <contour>
      <point x="752" y="0" type="line"/>
      <point x="1296" y="0" type="line"/>
      <point x="1296" y="154" type="line"/>
      <point x="1114" y="154" type="line"/>
      <point x="1114" y="650" type="line"/>
      <point x="1293" y="650" type="line"/>
      <point x="1293" y="804" type="line"/>
      <point x="1114" y="804" type="line"/>
      <point x="1114" y="937" type="line" smooth="yes"/>
      <point x="1114" y="1051"/>
      <point x="1142" y="1087"/>
      <point x="1197" y="1087" type="curve" smooth="yes"/>
      <point x="1257" y="1087"/>
      <point x="1270" y="1040"/>
      <point x="1282" y="970" type="curve"/>
      <point x="1451" y="1017" type="line"/>
      <point x="1438" y="1181"/>
      <point x="1326" y="1235"/>
      <point x="1187" y="1235" type="curve" smooth="yes"/>
      <point x="964" y="1235"/>
      <point x="891" y="1109"/>
      <point x="891" y="926" type="curve" smooth="yes"/>
      <point x="891" y="804" type="line"/>
      <point x="550" y="804" type="line"/>
      <point x="550" y="650" type="line"/>
      <point x="891" y="650" type="line"/>
      <point x="891" y="154" type="line"/>
      <point x="752" y="154" type="line"/>
    </contour>
    <component base="f"/>
  </outline>
</glyph>
<glyph name="ffi" format="1">
  <advance width="1843"/>
  <outline>
    <contour>
      <point x="64" y="0" type="line"/>
      <point x="555" y="0" type="line"/>
      <point x="555" y="154" type="line"/>
      <point x="426" y="154" type="line"/>
      <point x="426" y="650" type="line"/>
      <point x="756" y="650" type="line"/>
      <point x="756" y="804" type="line"/>
      <point x="426" y="804" type="line"/>
      <point x="426" y="933" type="line" smooth="yes"/>
      <point x="426" y="1046"/>
      <point x="519" y="1094"/>
      <point x="631" y="1094" type="curve" smooth="yes"/>
      <point x="727" y="1094"/>
      <point x="838" y="1058"/>
      <point x="915" y="999" type="curve"/>
      <point x="971" y="1115" type="line"/>
      <point x="877" y="1203"/>
      <point x="733" y="1249"/>
      <point x="595" y="1249" type="curve" smooth="yes"/>
      <point x="393" y="1249"/>
      <point x="203" y="1150"/>
      <point x="203" y="940" type="curve" smooth="yes"/>
      <point x="203" y="804" type="line"/>
      <point x="61" y="804" type="line"/>
      <point x="61" y="650" type="line"/>
      <point x="203" y="650" type="line"/>
      <point x="203" y="154" type="line"/>
      <point x="64" y="154" type="line"/>
    </contour>
    <component base="fi" xOffset="567"/>
  </outline>
</glyph>
<glyph name="ffl" format="1">
  <advance width="1888"/>
  <outline>
    <contour>
      <point x="93" y="0" type="line"/>
      <point x="584" y="0" type="line"/>
      <point x="584" y="154" type="line"/>
      <point x="455" y="154" type="line"/>
      <point x="455" y="650" type="line"/>
      <point x="785" y="650" type="line"/>
      <point x="785" y="804" type="line"/>
      <point x="455" y="804" type="line"/>
      <point x="455" y="933" type="line" smooth="yes"/>
      <point x="455" y="1046"/>
      <point x="547" y="1094"/>
      <point x="660" y="1094" type="curve" smooth="yes"/>
      <point x="756" y="1094"/>
      <point x="867" y="1058"/>
      <point x="944" y="999" type="curve"/>
      <point x="1000" y="1115" type="line"/>
      <point x="906" y="1203"/>
      <point x="762" y="1249"/>
      <point x="624" y="1249" type="curve" smooth="yes"/>
      <point x="421" y="1249"/>
      <point x="232" y="1150"/>
      <point x="232" y="940" type="curve" smooth="yes"/>
      <point x="232" y="804" type="line"/>
      <point x="90" y="804" type="line"/>
      <point x="90" y="650" type="line"/>
      <point x="232" y="650" type="line"/>
      <point x="232" y="154" type="line"/>
      <point x="93" y="154" type="line"/>
    </contour>
    <component base="fl" xOffset="551"/>
  </outline>
</glyph>
<glyph name="lc_ascender_stem" format="1">
  <advance width="1276"/>
  <outline>
    <contour>
      <point x="146" y="0" type="line"/>
      <point x="639" y="0" type="line"/>
      <point x="639" y="154" type="line"/>
      <point x="516" y="154" type="line"/>
      <point x="516" y="1174" type="line"/>
      <point x="147" y="1174" type="line"/>
      <point x="147" y="1020" type="line"/>
      <point x="292" y="1020" type="line"/>
      <point x="292" y="154" type="line"/>
      <point x="146" y="154" type="line"/>
    </contour>
  </outline>
</glyph>
<glyph name="lc_ascender_stem_1" format="1">
  <advance width="600"/>
  <outline>
    <contour>
      <point x="140" y="0" type="line"/>
      <point x="516" y="0" type="line"/>
      <point x="516" y="1174" type="line"/>
      <point x="142" y="1174" type="line"/>
      <point x="142" y="1020" type="line"/>
      <point x="292" y="1020" type="line"/>
      <point x="292" y="154" type="line"/>
      <point x="140" y="154" type="line"/>
    </contour>
  </outline>
</glyph>
<glyph name="lc_ascender_stem_2" format="1">
  <advance width="600"/>
  <outline>
    <contour>
      <point x="290" y="0" type="line"/>
      <point x="630" y="0" type="line"/>
      <point x="630" y="154" type="line"/>
      <point x="514" y="154" type="line"/>
      <point x="514" y="1174" type="line"/>
      <point x="142" y="1174" type="line"/>
      <point x="142" y="1020" type="line"/>
      <point x="290" y="1020" type="line"/>
    </contour>
  </outline>
</glyph>
<glyph name="lc_bowl_left" format="1">
  <advance width="1349"/>
  <outline>
    <contour>
      <point x="585" y="-22" type="curve" smooth="yes"/>
      <point x="721" y="-22"/>
      <point x="844" y="47"/>
      <point x="941" y="161" type="curve"/>
      <point x="941" y="271" type="line"/>
      <point x="849" y="186"/>
      <point x="732" y="140"/>
      <point x="636" y="140" type="curve" smooth="yes"/>
      <point x="508" y="140"/>
      <point x="404" y="224"/>
      <point x="404" y="392" type="curve" smooth="yes"/>
      <point x="404" y="578"/>
      <point x="499" y="664"/>
      <point x="629" y="664" type="curve" smooth="yes"/>
      <point x="726" y="664"/>
      <point x="840" y="614"/>
      <point x="937" y="526" type="curve"/>
      <point x="937" y="638" type="line"/>
      <point x="844" y="750"/>
      <point x="704" y="825"/>
      <point x="567" y="825" type="curve" smooth="yes"/>
      <point x="353" y="825"/>
      <point x="170" y="679"/>
      <point x="170" y="399" type="curve" smooth="yes"/>
      <point x="170" y="130"/>
      <point x="363" y="-22"/>
    </contour>
  </outline>
</glyph>
<glyph name="lc_bowl_right" format="1">
  <advance width="1349"/>
  <outline>
    <contour>
      <point x="661" y="-21" type="curve" smooth="yes"/>
      <point x="868" y="-21"/>
      <point x="1072" y="134"/>
      <point x="1072" y="416" type="curve" smooth="yes"/>
      <point x="1072" y="679"/>
      <point x="898" y="825"/>
      <point x="687" y="825" type="curve" smooth="yes"/>
      <point x="556" y="825"/>
      <point x="419" y="762"/>
      <point x="312" y="642" type="curve"/>
      <point x="328" y="517" type="line"/>
      <point x="422" y="616"/>
      <point x="520" y="662"/>
      <point x="610" y="662" type="curve" smooth="yes"/>
      <point x="745" y="662"/>
      <point x="838" y="561"/>
      <point x="838" y="402" type="curve" smooth="yes"/>
      <point x="838" y="223"/>
      <point x="728" y="134"/>
      <point x="599" y="134" type="curve" smooth="yes"/>
      <point x="512" y="134"/>
      <point x="412" y="176"/>
      <point x="326" y="274" type="curve"/>
      <point x="317" y="174" type="line"/>
      <point x="402" y="42"/>
      <point x="530" y="-21"/>
    </contour>
  </outline>
</glyph>
<glyph name="lc_xheight_curved_stem" format="1">
  <advance width="1323"/>
  <outline>
    <contour>
      <point x="759" y="0" type="line"/>
      <point x="1234" y="0" type="line"/>
      <point x="1234" y="154" type="line"/>
      <point x="1091" y="154" type="line"/>
      <point x="1091" y="534" type="line" smooth="yes"/>
      <point x="1092" y="728"/>
      <point x="964" y="826"/>
      <point x="816" y="826" type="curve" smooth="yes"/>
      <point x="669" y="826"/>
      <point x="541" y="738"/>
      <point x="422" y="618" type="curve"/>
      <point x="422" y="481" type="line"/>
      <point x="499" y="576"/>
      <point x="620" y="655"/>
      <point x="740" y="655" type="curve" smooth="yes"/>
      <point x="820" y="655"/>
      <point x="869" y="597"/>
      <point x="869" y="485" type="curve" smooth="yes"/>
      <point x="869" y="154" type="line"/>
      <point x="759" y="154" type="line"/>
    </contour>
  </outline>
</glyph>
<glyph name="lc_xheight_stem" format="1">
  <advance width="724"/>
  <outline>
    <contour>
      <point x="137" y="0" type="line"/>
      <point x="623" y="0" type="line"/>
      <point x="623" y="154" type="line"/>
      <point x="499" y="154" type="line"/>
      <point x="499" y="603" type="line"/>
      <point x="499" y="804" type="line"/>
      <point x="139" y="804" type="line"/>
      <point x="139" y="650" type="line"/>
      <point x="277" y="650" type="line"/>
      <point x="277" y="154" type="line"/>
      <point x="137" y="154" type="line"/>
    </contour>
  </outline>
</glyph>
<glyph name="uniFB00" format="1">
  <advance width="1425"/>
  <outline>
    <contour>
      <point x="78" y="0" type="line"/>
      <point x="639" y="0" type="line"/>
      <point x="639" y="155" type="line"/>
      <point x="462" y="155" type="line"/>
      <point x="462" y="650" type="line"/>
      <point x="921" y="650" type="line"/>
      <point x="921" y="155" type="line"/>
      <point x="775" y="155" type="line"/>
      <point x="775" y="0" type="line"/>
      <point x="1338" y="0" type="line"/>
      <point x="1338" y="155" type="line"/>
      <point x="1145" y="155" type="line"/>
      <point x="1145" y="650" type="line"/>
      <point x="1336" y="650" type="line"/>
      <point x="1336" y="804" type="line"/>
      <point x="1145" y="804" type="line"/>
      <point x="1145" y="937" type="line" smooth="yes"/>
      <point x="1145" y="1051"/>
      <point x="1173" y="1087"/>
      <point x="1227" y="1087" type="curve" smooth="yes"/>
      <point x="1288" y="1087"/>
      <point x="1301" y="1040"/>
      <point x="1312" y="970" type="curve"/>
      <point x="1482" y="1017" type="line"/>
      <point x="1469" y="1181"/>
      <point x="1356" y="1235"/>
      <point x="1218" y="1235" type="curve" smooth="yes"/>
      <point x="995" y="1235"/>
      <point x="921" y="1109"/>
      <point x="921" y="926" type="curve" smooth="yes"/>
      <point x="921" y="804" type="line"/>
      <point x="462" y="804" type="line"/>
      <point x="462" y="937" type="line" smooth="yes"/>
      <point x="462" y="1051"/>
      <point x="496" y="1087"/>
      <point x="551" y="1087" type="curve" smooth="yes"/>
      <point x="617" y="1087"/>
      <point x="630" y="1040"/>
      <point x="642" y="970" type="curve"/>
      <point x="811" y="1017" type="line"/>
      <point x="798" y="1181"/>
      <point x="685" y="1235"/>
      <point x="535" y="1235" type="curve" smooth="yes"/>
      <point x="312" y="1235"/>
      <point x="238" y="1097"/>
      <point x="238" y="926" type="curve" smooth="yes"/>
      <point x="238" y="804" type="line"/>
      <point x="75" y="804" type="line"/>
      <point x="75" y="650" type="line"/>
      <point x="238" y="650" type="line"/>
      <point x="238" y="155" type="line"/>
      <point x="78" y="155" type="line"/>
    </contour>
  </outline>
</glyph>
<glyph name="uniFB03" format="1">
  <advance width="1921"/>
  <outline>
    <contour>
      <point x="78" y="0" type="line"/>
      <point x="628" y="0" type="line"/>
      <point x="628" y="155" type="line"/>
      <point x="462" y="155" type="line"/>
      <point x="462" y="650" type="line"/>
      <point x="834" y="650" type="line"/>
      <point x="834" y="804" type="line"/>
      <point x="462" y="804" type="line"/>
      <point x="462" y="959" type="line" smooth="yes"/>
      <point x="462" y="1053"/>
      <point x="547" y="1102"/>
      <point x="656" y="1102" type="curve" smooth="yes"/>
      <point x="742" y="1102"/>
      <point x="843" y="1072"/>
      <point x="933" y="1009" type="curve"/>
      <point x="1051" y="1055" type="line"/>
      <point x="954" y="1187"/>
      <point x="783" y="1250"/>
      <point x="622" y="1250" type="curve" smooth="yes"/>
      <point x="421" y="1250"/>
      <point x="238" y="1150"/>
      <point x="238" y="958" type="curve" smooth="yes"/>
      <point x="238" y="804" type="line"/>
      <point x="75" y="804" type="line"/>
      <point x="75" y="650" type="line"/>
      <point x="238" y="650" type="line"/>
      <point x="238" y="155" type="line"/>
      <point x="78" y="155" type="line"/>
    </contour>
    <component base="fi" xOffset="648"/>
  </outline>
</glyph>
